<?xml version="1.0" encoding="utf-8"?>
<!-- Generator: Adobe Illustrator 27.8.1, SVG Export Plug-In . SVG Version: 6.00 Build 0)  -->
<svg version="1.1" id="Layer_1" xmlns="http://www.w3.org/2000/svg" xmlns:xlink="http://www.w3.org/1999/xlink" x="0px" y="0px"
	 viewBox="0 0 720 7200" style="enable-background:new 0 0 720 7200;" xml:space="preserve">
<style type="text/css">
	.st0{display:none;}
	.st1{fill:none;stroke:#000000;stroke-width:1.5;stroke-linecap:round;stroke-linejoin:round;}
	.st2{fill:none;stroke:#FFFFFF;stroke-width:2;stroke-linecap:round;stroke-linejoin:round;}
</style>
<g id="Layer_2_00000067939937242397945580000016770332106152521112_">
	
		<image style="overflow:visible;enable-background:new    ;" width="3000" height="30000" xlink:href="../images/duration-chart/swarm_jd7d_2pct_compressed_vertical.png"  transform="matrix(-0.24 0 0 -0.24 720.0001 7200.0005)">
	</image>
</g>
<g id="Layer_1_00000168816137782665941020000001179951204767441546_">
	<g id="Layer_2_00000023263608276522110560000017780742606227139991_" class="st0">
		
			<image style="display:inline;overflow:visible;enable-background:new    ;" width="3000" height="30000" xlink:href="../images/duration-chart/swarm_jd7d_2pct_compressed_vertical.png"  transform="matrix(-0.24 0 0 -0.24 720 7164)">
		</image>
	</g>
	<g id="svg-static">
		<g id="maptest">
			<path class="st1" d="M365,365.3c13.4,0.2,22.9-5.2,30-14"/>
			<path class="st1" d="M371.2,371.9c-1.7-2.7-3.8-5-6.2-6.6c2.4-2.1,4.5-4.9,6-8.4"/>
		</g>
		<g id="_x33_73_days">
			<path class="st1" d="M366.5,86.6c9.3,9.6,19.9,12.5,31.1,11.3"/>
			<path class="st1" d="M366.2,95.7c0.7-3.1,0.8-6.2,0.3-9.1c3.2,0.2,6.6-0.3,10.2-1.7"/>
		</g>
		<g id="yaxis">
			<path class="st1" d="M146.4,97.7"/>
			<path class="st1" d="M154.5,88.5c-2.9,1.2-5.9,7.2-8.4,9.3c-1.4-2.6-4.1-7.2-6.5-9.3"/>
			<line class="st1" x1="146.4" y1="37.5" x2="146.4" y2="96.8"/>
		</g>
		<g id="redriver">
			<path class="st1" d="M372.3,843.3c9.6,9.3,20.3,11.9,31.5,10.3"/>
			<path class="st1" d="M372.3,852.4c0.6-3.1,0.6-6.2,0-9.1c3.2,0.1,6.6-0.5,10.1-2"/>
		</g>
		<g id="sanAntonio">
			<path class="st1" d="M363.4,2630.3c8.2,10.6,34.1,42.7,80.8,79.2"/>
			<path class="st1" d="M362.7,2635.1c0.2-1.9,0.1-3.8-0.4-5.5c2,0.2,4.1-0.1,6.1-0.9"/>
		</g>
		<g id="longIsland">
			<path class="st2" d="M411.1,3041.4c-23.2-4-43.9-3.6-60.5,14.6"/>
			<g id="_x31_154_days_00000037656754346664684590000013322812942557642683_">
				<path class="st2" d="M411.2,3042.1c-11.3-0.7-21.7,2.6-30.6,12.6"/>
				<path class="st2" d="M390.8,3056c-3.6-1.3-7.1-1.6-10.2-1.3c0.5-2.8,0.2-6-0.6-9"/>
			</g>
			<g id="_x31_154_days_00000072998032964504768020000011194479368289953939_">
				<path class="st2" d="M411.1,3041.4c-18.6-20.1-76.9-8-84.4,3.1"/>
				<path class="st2" d="M335.6,3048.5c-3.1-2.2-6.4-3.5-9.5-4c1.2-2.6,1.8-5.7,1.8-8.9"/>
			</g>
			<path class="st2" d="M360.8,3057.4c-3.6-1.3-7-1.7-10.2-1.4c0.5-2.8,0.3-5.9-0.5-9"/>
			<path class="st1" d="M360.8,3057.4c-3.6-1.3-7-1.7-10.2-1.4c0.5-2.8,0.3-5.9-0.5-9"/>
			<g id="_x31_154_days_00000100374569595856383660000010191443747504256392_">
				<path class="st1" d="M411.2,3042.1c-11.3-0.7-21.7,2.6-30.6,12.6"/>
				<path class="st1" d="M390.8,3056c-3.6-1.3-7.1-1.6-10.2-1.3c0.5-2.8,0.2-6-0.6-9"/>
			</g>
			<path class="st1" d="M411.1,3041.4c-23.2-4-43.9-3.6-60.5,14.6"/>
			<g id="_x31_154_days_00000139989813821974282290000006926550886509646229_">
				<path class="st1" d="M411.1,3041.4c-18.6-20.1-76.9-8-84.4,3.1"/>
				<path class="st1" d="M335.6,3048.5c-3.1-2.2-6.4-3.5-9.5-4c1.2-2.6,1.8-5.7,1.8-8.9"/>
			</g>
		</g>
		<g id="carlsbad">
			<path class="st1" d="M408,4818.6c-8.4-7.6-18.6-11.5-31.8-9.3"/>
			<path class="st1" d="M383.4,4816.7c-2-3.2-4.5-5.7-7.2-7.4c2.1-1.9,3.9-4.5,5.1-7.5"/>
		</g>
		<g id="longest">
			<path class="st1" d="M441.3,6372.5c-10.4-4.4-21.4-4.6-33,2"/>
			<path class="st1" d="M417.6,6379c-3-2.4-6.2-3.8-9.3-4.5c1.3-2.5,2.1-5.6,2.3-8.8"/>
		</g>
	</g>
	<g id="xaxis">
		<path class="st1" d="M301.5,286.1"/>
		<path class="st1" d="M280.7,294.2c-1.2-2.9-7.2-5.9-9.3-8.4c2.6-1.4,7.2-4.1,9.3-6.5"/>
		<line class="st1" x1="448.5" y1="285.8" x2="271.5" y2="285.8"/>
		<g id="annotation-drawing-intro_text_map_00000063605884934503572420000000760406514529816706_">
			<path class="st1" d="M448.5,285.9"/>
			<path class="st1" d="M439.3,277.9c1.2,2.9,7.2,5.9,9.3,8.4c-2.6,1.4-7.2,4.1-9.3,6.5"/>
		</g>
	</g>
	<g id="map">
		<path class="st1" d="M662.7,59.3c-12.5,10.1-93.8,0-93.8,0"/>
		<g id="annotation-drawing-intro_text_map_00000158731519430983205300000014397442688460832660_">
			<path class="st1" d="M662.3,58.6"/>
			<path class="st1" d="M650.2,56.9c2.6,1.8,9.2,1,12.4,2c-1.4,2.6-3.8,7.4-4.3,10.5"/>
		</g>
	</g>
	<g id="redmap">
		<path class="st1" d="M669.3,550.7c-0.4,37.8-95,21.4-95,21.4"/>
		<g id="annotation-drawing-intro_text_map_00000060001179243092767070000017150447736269390752_">
			<path class="st1" d="M668.9,549.7"/>
			<path class="st1" d="M658.5,556.2c3.1-0.3,7.7-5.2,10.8-6.5c0.6,2.9,1.9,8.1,3.5,10.8"/>
		</g>
	</g>
</g>
</svg>
