<?xml version="1.0" encoding="utf-8"?>
<!-- Generator: Adobe Illustrator 27.5.0, SVG Export Plug-In . SVG Version: 6.00 Build 0)  -->
<svg version="1.1" id="Layer_1" xmlns="http://www.w3.org/2000/svg" xmlns:xlink="http://www.w3.org/1999/xlink" x="0px" y="0px"
	 viewBox="0 0 720 7200" style="enable-background:new 0 0 720 7200;" xml:space="preserve">
<style type="text/css">
	.st0{display:none;}
	.st1{fill:none;stroke:#000000;stroke-width:1.5;stroke-linecap:round;stroke-linejoin:round;}
</style>
<g id="Layer_2_00000067939937242397945580000016770332106152521112_">
	
		<image style="overflow:visible;enable-background:new    ;" width="3000" height="30000" xlink:href="../images/duration-chart/swarm_jd7d_2pct_compressed_vertical.png"  transform="matrix(-0.24 0 0 -0.24 720.0001 7200.0005)">
	</image>
</g>
<g id="Layer_1_00000168816137782665941020000001179951204767441546_">
	<g id="Layer_2_00000023263608276522110560000017780742606227139991_" class="st0">
		
			<image style="display:inline;overflow:visible;enable-background:new    ;" width="3000" height="30000" xlink:href="../images/duration-chart/swarm_jd7d_2pct_compressed_vertical.png"  transform="matrix(-0.24 0 0 -0.24 720 7164)">
		</image>
	</g>
	<g id="svg-static">
		<g id="annotation-drawing-intro_text_2">
			<path class="st1" d="M291,189.3c7.1,8.8,16.6,14.2,30,14"/>
			<path class="st1" d="M315,194.9c1.5,3.5,3.6,6.3,6,8.4c-2.4,1.6-4.5,3.9-6.2,6.6"/>
		</g>
		<g id="annotation-drawing-intro_text_3">
			<polyline class="st1" points="240.6,904.8 240.6,889.6 479.4,889.6 479.4,904.8 			"/>
		</g>
		<g id="annotation-drawing-intro_text_2_00000031929833289478236830000017710674688058972808_">
			<path class="st1" d="M387.4,245.1c9.3,9.6,19.9,12.5,31.1,11.3"/>
			<path class="st1" d="M387.1,254.2c0.7-3.1,0.8-6.2,0.3-9.1c3.2,0.2,6.6-0.3,10.2-1.7"/>
		</g>
	</g>
</g>
</svg>
