<?xml version="1.0" encoding="utf-8"?>
<!-- Generator: Adobe Illustrator 27.7.0, SVG Export Plug-In . SVG Version: 6.00 Build 0)  -->
<svg version="1.1" id="Layer_1" xmlns="http://www.w3.org/2000/svg" xmlns:xlink="http://www.w3.org/1999/xlink" x="0px" y="0px"
	 viewBox="0 0 720 7200" style="enable-background:new 0 0 720 7200;" xml:space="preserve">
<style type="text/css">
	.st0{display:none;}
	.st1{fill:none;stroke:#000000;stroke-width:1.5;stroke-linecap:round;stroke-linejoin:round;}
	.st2{fill:url(#SVGID_1_);}
</style>
<g id="Layer_2_00000067939937242397945580000016770332106152521112_">
	
		<image style="overflow:visible;enable-background:new    ;" width="3000" height="30000" xlink:href="../images/duration-chart/swarm_jd7d_2pct_compressed_vertical.png"  transform="matrix(-0.24 0 0 -0.24 720.0001 7200.0005)">
	</image>
</g>
<g id="Layer_1_00000168816137782665941020000001179951204767441546_">
	<g id="Layer_2_00000023263608276522110560000017780742606227139991_" class="st0">
		
			<image style="display:inline;overflow:visible;enable-background:new    ;" width="3000" height="30000" xlink:href="../images/duration-chart/swarm_jd7d_2pct_compressed_vertical.png"  transform="matrix(-0.24 0 0 -0.24 720 7164)">
		</image>
	</g>
	<g id="svg-static">
		<g id="annotation-drawing-intro_text_2">
			<path class="st1" d="M291,189.3c7.1,8.8,16.6,14.2,30,14"/>
			<path class="st1" d="M315,194.9c1.5,3.5,3.6,6.3,6,8.4c-2.4,1.6-4.5,3.9-6.2,6.6"/>
		</g>
		<g id="annotation-drawing-intro_text_3">
			<polyline class="st1" points="240.6,904.8 240.6,889.6 479.4,889.6 479.4,904.8 			"/>
		</g>
		<g id="annotation-drawing-intro_text_2_00000031929833289478236830000017710674688058972808_">
			<path class="st1" d="M387.4,245.1c9.3,9.6,19.9,12.5,31.1,11.3"/>
			<path class="st1" d="M387.1,254.2c0.7-3.1,0.8-6.2,0.3-9.1c3.2,0.2,6.6-0.3,10.2-1.7"/>
		</g>
		<g id="annotation-drawing-intro_text_map">
			<path class="st1" d="M558.4,93.9c11.2,1.2,21.8-1.7,31.1-11.3"/>
			<path class="st1" d="M579.3,80.9c3.6,1.4,7,1.9,10.2,1.7c-0.5,2.9-0.4,6,0.3,9.1"/>
		</g>
		<g id="annotation-drawing-intro_highlight_map">
			<path class="st1" d="M558.4,643.9c11.2,1.2,21.8-1.7,31.1-11.3"/>
			<path class="st1" d="M579.3,630.9c3.6,1.4,7,1.9,10.2,1.7c-0.5,2.9-0.4,6,0.3,9.1"/>
		</g>
	</g>
	
		<linearGradient id="SVGID_1_" gradientUnits="userSpaceOnUse" x1="404.45" y1="-10994.0996" x2="404.45" y2="-11068.9004" gradientTransform="matrix(1 0 0 1 0 11400)">
		<stop  offset="0" style="stop-color:#F1C659"/>
		<stop  offset="0.2927" style="stop-color:#E48951"/>
		<stop  offset="0.5063" style="stop-color:#C34C4A"/>
		<stop  offset="0.7211" style="stop-color:#69342A"/>
		<stop  offset="1" style="stop-color:#191900"/>
	</linearGradient>
	<path class="st2" d="M409.5,405.9h-10.1c-1,0-1.8-0.8-1.8-1.8v-71.2c0-1,0.8-1.8,1.8-1.8h10.1c1,0,1.8,0.8,1.8,1.8v71.2
		C411.3,405.1,410.5,405.9,409.5,405.9z"/>
	<g>
		<g>
			<path d="M412.8,404.2c0-2.5,0.8-4,2.3-4s2.3,1.4,2.3,4c0,2.5-0.8,4-2.3,4S412.8,406.7,412.8,404.2z M416.8,404.2
				c0-2.3-0.7-3.5-1.8-3.5s-1.8,1.2-1.8,3.5s0.7,3.5,1.8,3.5S416.8,406.5,416.8,404.2z"/>
			<path d="M421,405.2c0-1.9,1.2-3,2.6-3c0.7,0,1.2,0.3,1.7,0.7v-1.1v-2.4h0.5v8.6h-0.4l-0.1-0.7l0,0c-0.5,0.5-1.1,0.9-1.9,0.9
				C421.9,408.2,421,407.1,421,405.2z M425.2,406.8v-3.4c-0.6-0.5-1.1-0.7-1.7-0.7c-1.1,0-2,1.1-2,2.6s0.7,2.5,1.9,2.5
				C424.1,407.7,424.6,407.4,425.2,406.8z"/>
			<path d="M427.6,406.6c0-1.3,1.2-1.9,3.7-2.2c0-0.9-0.2-1.8-1.4-1.8c-0.8,0-1.4,0.4-1.8,0.7l-0.2-0.4c0.4-0.3,1.2-0.7,2.1-0.7
				c1.4,0,1.8,1,1.8,2.2v3.7h-0.4l-0.1-0.7l0,0c-0.6,0.5-1.3,0.9-2,0.9C428.3,408.2,427.6,407.7,427.6,406.6z M431.3,406.8v-2
				c-2.4,0.3-3.2,0.8-3.2,1.7c0,0.8,0.6,1.1,1.2,1.1C430,407.7,430.6,407.4,431.3,406.8z"/>
			<path d="M433,410.5l0.1-0.5c0.1,0,0.3,0.1,0.5,0.1c0.7,0,1.2-0.6,1.5-1.5l0.2-0.5l-2.4-5.9h0.6l1.4,3.6c0.2,0.5,0.4,1.1,0.6,1.6
				l0,0c0.2-0.5,0.4-1.1,0.5-1.6l1.2-3.6h0.5l-2.3,6.5c-0.3,1-0.9,1.9-1.9,1.9C433.4,410.7,433.2,410.6,433,410.5z"/>
			<path d="M438.4,407.4l0.3-0.4c0.5,0.4,1,0.7,1.8,0.7c0.9,0,1.4-0.5,1.4-1.1c0-0.7-0.7-1-1.4-1.3c-0.9-0.3-1.8-0.7-1.8-1.6
				c0-0.8,0.7-1.5,1.9-1.5c0.6,0,1.2,0.3,1.6,0.6l-0.3,0.4c-0.4-0.3-0.8-0.5-1.4-0.5c-0.9,0-1.3,0.5-1.3,1c0,0.7,0.7,0.9,1.4,1.2
				c0.9,0.3,1.9,0.6,1.9,1.8c0,0.9-0.7,1.6-1.9,1.6C439.6,408.2,438.9,407.8,438.4,407.4z"/>
		</g>
	</g>
	<g>
		<g>
			<path d="M412.4,350.9l0.3-0.4c0.5,0.5,1.1,1,2.1,1s1.8-0.7,1.8-1.7c0-1.1-0.8-1.8-2.7-1.8v-0.5c1.8,0,2.4-0.7,2.4-1.7
				c0-0.9-0.6-1.4-1.5-1.4c-0.7,0-1.3,0.4-1.8,0.8l-0.3-0.4c0.5-0.5,1.2-0.9,2.1-0.9c1.2,0,2.1,0.7,2.1,1.9c0,1-0.6,1.6-1.5,1.9l0,0
				c0.9,0.2,1.7,0.9,1.7,2c0,1.3-1,2.2-2.3,2.2C413.6,352,412.9,351.4,412.4,350.9z"/>
			<path d="M418.4,348c0-2.5,0.8-4,2.3-4s2.3,1.4,2.3,4c0,2.5-0.8,4-2.3,4S418.4,350.5,418.4,348z M422.4,348c0-2.3-0.7-3.5-1.8-3.5
				s-1.8,1.2-1.8,3.5s0.7,3.5,1.8,3.5S422.4,350.3,422.4,348z"/>
			<path d="M424.1,348c0-2.5,0.8-4,2.3-4s2.3,1.4,2.3,4c0,2.5-0.8,4-2.3,4S424.1,350.5,424.1,348z M428.2,348c0-2.3-0.7-3.5-1.8-3.5
				s-1.8,1.2-1.8,3.5s0.7,3.5,1.8,3.5S428.2,350.3,428.2,348z"/>
		</g>
	</g>
	<g>
		<g>
			<path d="M412.7,370.2c2.5-2.6,3.8-4,3.8-5.3c0-1-0.5-1.7-1.7-1.7c-0.7,0-1.3,0.4-1.8,1l-0.3-0.3c0.6-0.6,1.3-1.1,2.2-1.1
				c1.4,0,2.2,0.9,2.2,2.1c0,1.5-1.4,3-3.5,5.2c0.4,0,0.9-0.1,1.3-0.1h2.6v0.5h-4.7v-0.3L412.7,370.2L412.7,370.2z"/>
			<path d="M418.5,366.7c0-2.5,0.8-4,2.3-4s2.3,1.4,2.3,4c0,2.5-0.8,4-2.3,4S418.5,369.3,418.5,366.7z M422.6,366.7
				c0-2.3-0.7-3.5-1.8-3.5s-1.8,1.2-1.8,3.5s0.7,3.5,1.8,3.5S422.6,369.1,422.6,366.7z"/>
			<path d="M424.3,366.7c0-2.5,0.8-4,2.3-4s2.3,1.4,2.3,4c0,2.5-0.8,4-2.3,4S424.3,369.3,424.3,366.7z M428.3,366.7
				c0-2.3-0.7-3.5-1.8-3.5s-1.8,1.2-1.8,3.5s0.7,3.5,1.8,3.5S428.3,369.1,428.3,366.7z"/>
		</g>
	</g>
	<g>
		<g>
			<path d="M413.2,388.8h1.8v-6.4h-1.4V382c0.6-0.1,1.1-0.3,1.5-0.5h0.4v7.2h1.7v0.5h-4V388.8z"/>
			<path d="M418.5,385.4c0-2.5,0.8-4,2.3-4s2.3,1.4,2.3,4c0,2.5-0.8,4-2.3,4S418.5,388,418.5,385.4z M422.6,385.4
				c0-2.3-0.7-3.5-1.8-3.5s-1.8,1.2-1.8,3.5s0.7,3.5,1.8,3.5S422.6,387.8,422.6,385.4z"/>
			<path d="M424.3,385.4c0-2.5,0.8-4,2.3-4s2.3,1.4,2.3,4c0,2.5-0.8,4-2.3,4S424.3,388,424.3,385.4z M428.3,385.4
				c0-2.3-0.7-3.5-1.8-3.5s-1.8,1.2-1.8,3.5s0.7,3.5,1.8,3.5S428.3,387.8,428.3,385.4z"/>
		</g>
	</g>
</g>
</svg>
