<?xml version="1.0" encoding="UTF-8"?>
<svg id="svg-static" xmlns="http://www.w3.org/2000/svg" width="720" height="7200" viewBox="0 0 720 7200">
  <defs>
    <style>
      .cls-1 {
        fill: none;
        stroke: #000;
        stroke-linecap: round;
        stroke-linejoin: round;
        stroke-width: 1.5px;
      }
    </style>
  </defs>
  <g id="annotation-drawing-285">
			<path class="cls-1" d="M366.5,86.6c9.3,9.6,19.9,12.5,31.1,11.3"/>
			<path class="cls-1" d="M366.2,95.7c0.7-3.1,0.8-6.2,0.3-9.1c3.2,0.2,6.6-0.3,10.2-1.7"/>
  </g>
  <g id="annotation-drawing-1154">
			<path class="cls-1" d="M321,161.3c7.1,8.8,16.6,14.2,30,14"/>
			<path class="cls-1" d="M345,166.9c1.5,3.5,3.6,6.3,6,8.4c-2.4,1.6-4.5,3.9-6.2,6.6"/>
	</g>
  		<g id="annotation-drawing-yaxis">
			<path class="cls-1" d="M146.4,97.7"/>
			<path class="cls-1" d="M154.5,88.5c-2.9,1.2-5.9,7.2-8.4,9.3c-1.4-2.6-4.1-7.2-6.5-9.3"/>
			<line class="cls-1" x1="146.4" y1="37.5" x2="146.4" y2="96.8"/>
		</g>
    <g id="annotation-drawing-xaxis">
		  <path class="cls-1" d="M301.5,286.1"/>
		  <path class="cls-1" d="M280.7,294.2c-1.2-2.9-7.2-5.9-9.3-8.4c2.6-1.4,7.2-4.1,9.3-6.5"/>
		  <line class="cls-1" x1="448.5" y1="285.8" x2="271.5" y2="285.8"/>
      <path class="cls-1" d="M448.5,285.9"/>
			<path class="cls-1" d="M439.3,277.9c1.2,2.9,7.2,5.9,9.3,8.4c-2.6,1.4-7.2,4.1-9.3,6.5"/>
	  </g>
    <g id="annotation-drawing-1930s">
			<path class="cls-1" d="M372.3,843.3c9.6,9.3,20.3,11.9,31.5,10.3"/>
			<path class="cls-1" d="M372.3,852.4c0.6-3.1,0.6-6.2,0-9.1c3.2,0.1,6.6-0.5,10.1-2"/>
		</g>
    <g id="annotation-drawing-1950s">
          <path class="cls-1" d="M354.9,2276.2c-13-3.2-23.5-0.1-32.4,6.9"/>
          <path class="cls-1" d="M350.4,2268.3c1,3,2.6,5.7,4.6,7.8c-2.8,1.5-5.5,3.8-7.7,6.8"/>
    </g>
</svg>