<?xml version="1.0" encoding="UTF-8"?>
<svg xmlns="http://www.w3.org/2000/svg" xmlns:xlink="http://www.w3.org/1999/xlink" width="648px" height="432px" viewBox="0 0 648 432" version="1.1">
  <metadata xmlns:gridsvg="http://www.stat.auckland.ac.nz/~paul/R/gridSVG/">
    <gridsvg:generator name="gridSVG" version="1.7-5" time="2023-06-15 10:56:21"/>
    <gridsvg:argument name="name" value="src/assets/svgs/casc_regions_map.svg"/>
    <gridsvg:argument name="exportCoords" value="none"/>
    <gridsvg:argument name="exportMappings" value="none"/>
    <gridsvg:argument name="exportJS" value="none"/>
    <gridsvg:argument name="res" value="72"/>
    <gridsvg:argument name="prefix" value=""/>
    <gridsvg:argument name="addClasses" value="FALSE"/>
    <gridsvg:argument name="indent" value="TRUE"/>
    <gridsvg:argument name="htmlWrapper" value="FALSE"/>
    <gridsvg:argument name="usePaths" value="vpPaths"/>
    <gridsvg:argument name="uniqueNames" value="TRUE"/>
    <gridsvg:separator name="id.sep" value="."/>
    <gridsvg:separator name="gPath.sep" value="::"/>
    <gridsvg:separator name="vpPath.sep" value="::"/>
  </metadata>
  <g transform="translate(0, 432) scale(1, -1)">
    <g id="gridSVG" fill="none" stroke="rgb(0,0,0)" stroke-dasharray="none" stroke-width="0.75" font-size="12" font-family="Helvetica, Arial, FreeSans, Liberation Sans, Nimbus Sans L, sans-serif" opacity="1" stroke-linecap="round" stroke-linejoin="round" stroke-miterlimit="10" stroke-opacity="1" fill-opacity="0" font-weight="normal" font-style="normal">
      <g id="layout.1">
        <g id="layout.2">
          <defs>
            <clipPath id="layout::panel.7-5-7-5.1.clipPath">
              <rect x="0" y="13.24" width="648" height="405.52" fill="none" stroke="none"/>
            </clipPath>
          </defs>
          <g id="layout::panel.7-5-7-5.1" clip-path="url(#layout::panel.7-5-7-5.1.clipPath)">
            <g id="panel.7-5-7-5.1">
              <g id="grill.gTree.15.1"/>
              <g id="GRID.pathgrob.11.1">
                <path id="Midwest" d="M 417.59 270.5 L 419.72 265.41 L 422.41 264.39 L 426.99 266.84 L 428.96 268.95 L 431.19 274.35 L 431.97 277.67 L 432.07 281.11 L 431.04 286.23 L 427.36 293.51 L 428.17 296.44 L 426.98 299.78 L 429.06 304.11 L 428.9 309.25 L 430.4 310.32 L 430.26 312.25 L 432.8 313.14 L 434.85 315.11 L 434.87 310.76 L 436.94 313.33 L 436.65 318.16 L 439.87 319.82 L 438.67 322.65 L 440.44 325.44 L 441.74 326.15 L 445.04 324.6 L 447.51 324.65 L 448.79 322.95 L 455.99 320.82 L 456.41 316.02 L 457.78 315.17 L 458.56 312.89 L 458.68 307.54 L 456.71 305.66 L 456.67 303.2 L 453.65 300.82 L 454.07 297.35 L 456.86 296.72 L 460.09 302.46 L 463.4 304.31 L 465.34 303.41 L 466.73 301.33 L 469.07 292.94 L 470.7 289.59 L 470.31 284.21 L 467.39 284.47 L 466.95 280.72 L 464.78 278.12 L 465.02 275.98 L 463.32 273.4 L 462.35 270.5 L 468.21 268.14 L 470.43 268.49 L 473.23 266.93 L 477.87 269.55 L 480.73 269.56 L 483.48 272.68 L 487.58 275.93 L 492.4 278.5 L 495.51 259.61 L 494.1 258.44 L 495.4 254.94 L 494 244.61 L 490.83 240.7 L 488.28 240.64 L 485.54 236.87 L 485.72 233.82 L 482.83 234.26 L 481.34 230.72 L 482.07 227.92 L 480.89 225.64 L 478 224.83 L 474.89 226.9 L 474.06 229.12 L 470 226.25 L 467.33 227.43 L 465.86 226.16 L 463.54 227.71 L 459.59 227.92 L 458.24 230.65 L 455.86 231.61 L 452.46 231.38 L 453.08 226.94 L 449.12 224.97 L 446.22 224.95 L 446.72 222.34 L 444.83 220.68 L 442.06 216.6 L 441.82 214.34 L 439.3 214.16 L 436.96 215.63 L 435.52 214.22 L 434.87 211.64 L 432.52 213.15 L 430 211.73 L 429.72 210.2 L 426.12 211.78 L 421.2 210.5 L 419.11 209.21 L 417.82 207.17 L 418.83 204.47 L 414.59 202.92 L 414.27 201.42 L 415.44 199.62 L 414.18 198.34 L 409.85 200.22 L 408.6 199.94 L 407.68 196.58 L 408.08 196.07 L 407.04 190.62 L 404.96 189.46 L 403.58 189.35 L 402.95 186.6 L 403.32 184.02 L 401.86 182.11 L 394.52 181.58 L 397.63 185.73 L 396.65 188.9 L 382.47 188.11 L 362.98 187.36 L 346.07 187 L 345.96 194.15 L 345.64 224.5 L 343.25 225.76 L 342.14 228.25 L 340.16 230.36 L 342.46 234.68 L 340.35 235.06 L 337.88 237.02 L 336.65 237.86 L 336.11 240.27 L 334.59 241.5 L 332.91 245.37 L 331.59 247.47 L 332.41 249.65 L 331.19 254.1 L 331.11 257.93 L 329.45 258.91 L 329.67 262.79 L 328.7 264.2 L 325.75 272.62 L 323.75 276.15 L 325.86 281.51 L 324.67 283.13 L 325.74 287.02 L 325.86 312.61 L 323.6 314.22 L 321.85 317.01 L 324.64 320.11 L 324.81 321.66 L 324.49 327.26 L 323.17 329.37 L 322.57 332.01 L 322.17 345.07 L 319.41 353.31 L 319.32 358.54 L 319.95 360.56 L 318.77 364.97 L 338.41 364.9 L 338.36 370.31 L 341.47 369.08 L 342.88 363.34 L 343.83 361.02 L 347.1 360.17 L 350.92 359.91 L 351.43 358.33 L 354.53 358.82 L 355.64 359.99 L 359.09 360.05 L 365.87 356.35 L 368.64 356.15 L 371.53 353.37 L 374.28 352.56 L 379.79 355.54 L 380.64 353.59 L 386.66 354.14 L 389.28 352.53 L 388.43 350.28 L 383.12 348.16 L 381.26 346.94 L 377.25 343.08 L 374.44 339.54 L 368.63 334.5 L 369.45 333.38 L 371.37 333.23 L 380.79 337.48 L 380.48 334.62 L 381.84 333.13 L 385.2 332.19 L 388.93 333.95 L 390.58 335.77 L 394.56 336.66 L 402.53 343.01 L 403.89 344.89 L 406.08 346.29 L 409.74 346.82 L 409.71 345.57 L 406.08 342.78 L 404.1 339.25 L 409.46 338.81 L 412.18 337.66 L 414.93 333.82 L 418.56 334.29 L 420.08 333.06 L 423.68 334.66 L 426.95 337.1 L 433.34 337.9 L 435.42 339.17 L 437.74 338.64 L 438.22 335.59 L 447 337 L 446.81 335.76 L 448.12 331.27 L 449.97 330.16 L 452.93 331.85 L 453.93 329.68 L 447.93 329.62 L 445.4 328.63 L 442.44 330 L 441.91 326.84 L 439.1 328.94 L 435.7 329.78 L 433.87 329.56 L 432.66 327.66 L 430.13 326.89 L 427.42 327.04 L 426.02 324.43 L 421.78 325.01 L 421.41 323.01 L 418.19 321.84 L 414.75 313.45 L 414.5 311.74 L 412.64 311.21 L 411.27 307.8 L 413.56 306.88 L 414.88 309.8 L 416.84 310.92 L 418.18 314.79 L 420.18 313.86 L 418.93 312.02 L 416.56 305.28 L 416.62 300.54 L 415.43 299.36 L 414.79 296.1 L 415.35 293.28 L 413.77 287 L 414.32 283.47 L 415.84 280.51 L 415.85 276.31 L 415.72 273.57 L 417.59 270.5 Z" fill-rule="evenodd" stroke="rgb(148,148,148)" fill="rgb(255,255,255)" font-size="4.36" stroke-width="2.56" stroke-dasharray="none" stroke-linecap="butt" stroke-linejoin="round" stroke-miterlimit="10" stroke-opacity="1" fill-opacity="1" class="CASC_region"/>
                <path id="Midwest" d="M 401.76 356.09 L 400.77 353.7 L 397.23 351.19 L 395.29 351.38 L 395.96 352.26 L 401.76 356.09 Z" fill-rule="evenodd" stroke="rgb(148,148,148)" fill="rgb(255,255,255)" font-size="4.36" stroke-width="2.56" stroke-dasharray="none" stroke-linecap="butt" stroke-linejoin="round" stroke-miterlimit="10" stroke-opacity="1" fill-opacity="1" class="CASC_region"/>
                <path id="North-Central" d="M 342.46 234.68 L 340.16 230.36 L 342.14 228.25 L 343.25 225.76 L 345.64 224.5 L 345.96 194.15 L 324.77 194.04 L 303.89 194.35 L 289.32 194.83 L 262.4 196.11 L 251.62 196.95 L 229.19 198.75 L 208.25 200.93 L 183.96 204.1 L 186.28 220.63 L 186.3 222.22 L 188.06 234.27 L 191.75 260.85 L 176.44 263 L 170.69 263.94 L 172.96 278.11 L 178.49 312.93 L 176.97 314.72 L 176.32 316.89 L 173.33 315.05 L 168.03 315.34 L 166.35 316.32 L 164.27 315.4 L 159.06 316.99 L 158.45 320.67 L 155.48 322.56 L 156.01 325.26 L 154.98 326.45 L 152.45 335.26 L 148.4 332.5 L 146.54 334.68 L 146.98 337.32 L 149.01 338.49 L 148.45 340.99 L 151.63 348.5 L 148.89 349.45 L 148.82 350.81 L 146.43 352.78 L 146.11 354.8 L 143.81 359.37 L 140.54 362.48 L 141.31 366.24 L 139.07 370.76 L 142.08 384.83 L 163.93 380.39 L 184.36 376.78 L 207.81 373.27 L 222.39 371.38 L 235.47 369.9 L 254.32 368.1 L 271.61 366.79 L 293.37 365.63 L 318.77 364.97 L 319.95 360.56 L 319.32 358.54 L 319.41 353.31 L 322.17 345.07 L 322.57 332.01 L 323.17 329.37 L 324.49 327.26 L 324.81 321.66 L 324.64 320.11 L 321.85 317.01 L 323.6 314.22 L 325.86 312.61 L 325.74 287.02 L 324.67 283.13 L 325.86 281.51 L 323.75 276.15 L 325.75 272.62 L 328.7 264.2 L 329.67 262.79 L 329.45 258.91 L 331.11 257.93 L 331.19 254.1 L 332.41 249.65 L 331.59 247.47 L 332.91 245.37 L 334.59 241.5 L 336.11 240.27 L 336.65 237.86 L 337.88 237.02 L 340.35 235.06 L 342.46 234.68 Z" fill-rule="evenodd" stroke="rgb(148,148,148)" fill="rgb(255,255,255)" font-size="4.36" stroke-width="2.56" stroke-dasharray="none" stroke-linecap="butt" stroke-linejoin="round" stroke-miterlimit="10" stroke-opacity="1" fill-opacity="1" class="CASC_region"/>
                <path id="Northeast" d="M 415.44 199.62 L 414.27 201.42 L 414.59 202.92 L 418.83 204.47 L 417.82 207.17 L 419.11 209.21 L 421.2 210.5 L 426.12 211.78 L 429.72 210.2 L 430 211.73 L 432.52 213.15 L 434.87 211.64 L 435.52 214.22 L 436.96 215.63 L 439.3 214.16 L 441.82 214.34 L 442.06 216.6 L 444.83 220.68 L 446.72 222.34 L 446.22 224.95 L 449.12 224.97 L 453.08 226.94 L 452.46 231.38 L 455.86 231.61 L 458.24 230.65 L 459.59 227.92 L 463.54 227.71 L 465.86 226.16 L 467.33 227.43 L 470 226.25 L 474.06 229.12 L 474.89 226.9 L 478 224.83 L 480.89 225.64 L 482.07 227.92 L 481.34 230.72 L 482.83 234.26 L 485.72 233.82 L 485.54 236.87 L 488.28 240.64 L 490.83 240.7 L 494 244.61 L 495.4 254.94 L 494.1 258.44 L 495.51 259.61 L 492.4 278.5 L 499.54 283.94 L 505.15 289.04 L 505.83 291.13 L 507.59 292.82 L 505.27 296.47 L 504.16 299.14 L 509.77 301.79 L 514.97 302.7 L 517.28 302.68 L 519.35 301.72 L 521.15 302.55 L 525.6 303.37 L 527.96 304.92 L 530.34 308.02 L 532.27 309.18 L 531.33 312.32 L 531.88 314.33 L 529.75 315.29 L 529.34 317.65 L 532.82 320.85 L 533.83 323.22 L 537.94 329.23 L 540.22 331.43 L 556.09 335.55 L 566.2 337.96 L 574.04 340.13 L 575.09 344.66 L 577.02 345.22 L 579.2 344.77 L 580.29 347.36 L 580.13 350.5 L 582.16 352.94 L 582.76 355.4 L 581.61 357.63 L 581.58 361.51 L 582.69 363.11 L 582.18 367.07 L 586.47 379.52 L 588.42 379.33 L 589.03 377.11 L 590.63 376.66 L 593.16 378.95 L 596.24 380.71 L 601.4 378.19 L 606.15 362.99 L 607.04 359.33 L 611.05 359.1 L 613.01 353.48 L 616.01 353.71 L 618.55 350.02 L 617.26 347.14 L 614.08 344.45 L 612.13 343.6 L 610.25 340.29 L 608.07 338.07 L 606.02 337.41 L 602.75 337.78 L 600.91 334.16 L 601.8 333.08 L 600.49 331.23 L 598.47 330.61 L 594.06 327.4 L 590.64 322.4 L 589.74 319.63 L 589.1 315.36 L 588.67 312.47 L 591.39 308.92 L 589.34 307.84 L 589.07 304.21 L 591.47 304.02 L 593.39 302.16 L 596.34 298.13 L 598.68 298.07 L 600.91 300.09 L 602.13 298.7 L 595.53 294.59 L 593.92 297.08 L 592.48 293.79 L 590.71 292.68 L 588.44 292.05 L 589.29 294.93 L 588.86 295.34 L 587.21 295.15 L 587.46 289.96 L 583.78 288.24 L 578.57 286.04 L 572.68 284.41 L 566.4 278.96 L 571.1 278.92 L 571.81 279.99 L 576.99 281.51 L 579.65 284.03 L 582.53 283.06 L 579.87 280.54 L 573.73 276.05 L 564.91 272.1 L 563.32 273.9 L 563.17 273.43 L 561.7 270.76 L 564.74 270.12 L 565.33 268.62 L 565.83 260.85 L 563.79 254.47 L 562.02 252.35 L 560.92 248.39 L 559.38 250.49 L 556.03 250.97 L 551.53 253.17 L 551.12 256.39 L 550.97 253.05 L 553.02 251.34 L 554.26 247.87 L 557.24 244.85 L 558.51 244.62 L 559.87 240.22 L 559.11 233.83 L 558.38 231.44 L 556.52 229 L 556.61 226.54 L 555.38 220.8 L 552.9 221.2 L 553.08 226.59 L 554.75 230.45 L 554.7 231.74 L 552.28 232.12 L 550.15 236.84 L 548.45 234.68 L 545.97 237.53 L 546.13 239.55 L 545.05 241.72 L 546.22 245.28 L 543.72 244.92 L 542.8 242.57 L 543.82 237.89 L 545.61 236.2 L 546.86 231.66 L 543.92 233.31 L 540.12 233.66 L 538.64 235.61 L 536.82 233.99 L 535.75 235.56 L 536.88 238.02 L 535.29 234.98 L 536.54 233.52 L 538.87 233.7 L 541.37 232.04 L 543.86 232.34 L 545.27 230.85 L 548.72 229.56 L 548.18 228.32 L 550.11 222.5 L 548.56 222.15 L 549.08 218.97 L 550.72 218.21 L 550.77 216.52 L 554.23 216.58 L 556.77 211.69 L 545.16 209.16 L 527.44 205.66 L 507.52 202.19 L 491.96 200.35 L 469.53 197.37 L 469.4 197.09 L 459.79 196.08 L 452.41 195.63 L 445.26 194.79 L 439.58 194.58 L 422.48 192.75 L 419.97 193.18 L 420.38 190.62 L 404.96 189.46 L 407.04 190.62 L 408.08 196.07 L 407.68 196.58 L 408.6 199.94 L 409.85 200.22 L 414.18 198.34 L 415.44 199.62 Z" fill-rule="evenodd" stroke="rgb(148,148,148)" fill="rgb(255,255,255)" font-size="4.36" stroke-width="2.56" stroke-dasharray="none" stroke-linecap="butt" stroke-linejoin="round" stroke-miterlimit="10" stroke-opacity="1" fill-opacity="1" class="CASC_region"/>
                <path id="Northeast" d="M 596.05 293.91 L 598.12 292.49 L 594.18 291.49 L 596.05 293.91 Z" fill-rule="evenodd" stroke="rgb(148,148,148)" fill="rgb(255,255,255)" font-size="4.36" stroke-width="2.56" stroke-dasharray="none" stroke-linecap="butt" stroke-linejoin="round" stroke-miterlimit="10" stroke-opacity="1" fill-opacity="1" class="CASC_region"/>
                <path id="Northwest" d="M 142.08 384.83 L 139.07 370.76 L 141.31 366.24 L 140.54 362.48 L 143.81 359.37 L 146.11 354.8 L 146.43 352.78 L 148.82 350.81 L 148.89 349.45 L 151.63 348.5 L 148.45 340.99 L 149.01 338.49 L 146.98 337.32 L 146.54 334.68 L 148.4 332.5 L 152.45 335.26 L 154.98 326.45 L 156.01 325.26 L 155.48 322.56 L 158.45 320.67 L 159.06 316.99 L 164.27 315.4 L 166.35 316.32 L 168.03 315.34 L 173.33 315.05 L 176.32 316.89 L 176.97 314.72 L 178.49 312.93 L 172.96 278.11 L 143.46 283.08 L 141.94 283.45 L 117.99 288.39 L 111.26 289.94 L 94.14 293.83 L 80.87 297.19 L 70.34 299.96 L 56.81 303.95 L 46.98 306.65 L 38.29 309.25 L 37.32 311.29 L 37.9 315.97 L 38.92 317.67 L 38.42 321.8 L 41.91 327.13 L 44.58 330.59 L 46.27 333.83 L 50.87 345.08 L 51.5 347.45 L 53.67 351.46 L 56.15 358.37 L 56.89 361.79 L 58.98 364.85 L 62.3 365.36 L 60.8 366.43 L 58.83 366.2 L 57.7 367.75 L 60.16 370.11 L 59.69 375.14 L 61.07 376.39 L 59.8 378.44 L 59.56 382.39 L 60.16 387.98 L 58.95 390.44 L 59.47 394.65 L 60.8 397.28 L 66.02 392.35 L 72.55 389.68 L 73.52 390.13 L 76.71 387.55 L 78.11 382.6 L 81.59 385.8 L 80.73 387.45 L 81.1 390.28 L 80.46 392.52 L 82 394.02 L 81.67 396.69 L 79.82 398.82 L 80.53 400.33 L 89.67 397.66 L 105.68 393.4 L 116.37 390.73 L 132.99 386.81 L 142.08 384.83 Z" fill-rule="evenodd" stroke="rgb(148,148,148)" fill="rgb(255,255,255)" font-size="4.36" stroke-width="2.56" stroke-dasharray="none" stroke-linecap="butt" stroke-linejoin="round" stroke-miterlimit="10" stroke-opacity="1" fill-opacity="1" class="CASC_region"/>
                <path id="Northwest" d="M 79.34 395.7 L 76.87 393.47 L 74.88 396.04 L 77.94 396.86 L 79.34 395.7 Z" fill-rule="evenodd" stroke="rgb(148,148,148)" fill="rgb(255,255,255)" font-size="4.36" stroke-width="2.56" stroke-dasharray="none" stroke-linecap="butt" stroke-linejoin="round" stroke-miterlimit="10" stroke-opacity="1" fill-opacity="1" class="CASC_region"/>
                <path id="South-Central" d="M 387.71 138.41 L 387.22 137.22 L 388.69 131.03 L 391.46 128.96 L 389.51 124.42 L 386.39 121.79 L 385.93 118.93 L 384.56 117.26 L 384.7 113.62 L 383.5 111.32 L 383.59 109.65 L 406.32 110.96 L 405.46 106.71 L 407.68 103.22 L 408.7 100.1 L 409.88 99.51 L 405.96 96.75 L 408.12 94.96 L 410.39 97.56 L 412.7 96.05 L 411.05 92.75 L 408.57 90.25 L 411.1 88.42 L 413.28 88.49 L 415.85 86.76 L 416.62 84.51 L 415.77 83.05 L 413.22 83.73 L 411.33 85.9 L 406.77 87.07 L 402.26 83.47 L 401.1 85.97 L 398.3 86.34 L 396.01 83.83 L 394.34 83.16 L 388.3 85.73 L 389.68 87.19 L 386.62 88.08 L 384.46 91.74 L 381.61 91.22 L 381.09 93.02 L 377.32 91.29 L 378.52 89.75 L 375.91 88.49 L 372.27 89.12 L 365.25 91.51 L 361.56 91.39 L 357.11 90.16 L 353.47 89.47 L 347.81 86.83 L 345.99 87.63 L 346.5 90.92 L 342.69 89.48 L 343.91 87.19 L 344.13 84.52 L 342.51 82.24 L 338.47 78.67 L 332.75 75.35 L 327.64 72.91 L 324.84 70.46 L 322.87 70.12 L 321.49 71.74 L 320.33 69.17 L 317.18 66.35 L 314.53 61.79 L 312.31 55.64 L 311.62 47.95 L 312.35 44.98 L 313.94 41.74 L 313.77 39.41 L 315.6 37.3 L 310.74 36.4 L 309.12 38.32 L 306.08 39 L 301.41 39.2 L 298.67 41.36 L 296.05 41.63 L 294.11 43.57 L 290.46 44.47 L 288.64 50.39 L 286.45 53 L 286.79 55.14 L 285.88 57.46 L 286.26 59.52 L 284.78 61.78 L 281.41 64.13 L 281.26 65.55 L 279.02 69.1 L 276.45 71.19 L 276.02 73.27 L 272.43 80.7 L 272.25 82.93 L 270.82 85.08 L 268.27 86.94 L 267.73 88.24 L 265.3 89.48 L 262.85 93.08 L 254.97 93.73 L 252.27 95 L 248 93.43 L 246.17 90.49 L 245.57 88.2 L 244.02 85.74 L 239.75 83.31 L 236.49 86.01 L 233.17 88.03 L 230.75 88.83 L 225.35 93.84 L 223.59 98.06 L 223.83 101.66 L 222 104.84 L 221.76 107.42 L 218.46 110.9 L 216.1 112.03 L 213.92 115.5 L 211.99 116.9 L 210.11 119.92 L 207.23 121.67 L 205.54 125.67 L 203.85 126.58 L 183.76 129 L 182.94 122.65 L 172.84 123.99 L 183.96 204.1 L 208.25 200.93 L 229.19 198.75 L 251.62 196.95 L 262.4 196.11 L 289.32 194.83 L 303.89 194.35 L 324.77 194.04 L 345.96 194.15 L 346.07 187 L 348.44 171.23 L 348.21 146.13 L 349.33 144.91 L 353.44 145.01 L 353.61 137.41 L 378.4 138.02 L 387.71 138.41 Z" fill-rule="evenodd" stroke="rgb(148,148,148)" fill="rgb(255,255,255)" font-size="4.36" stroke-width="2.56" stroke-dasharray="none" stroke-linecap="butt" stroke-linejoin="round" stroke-miterlimit="10" stroke-opacity="1" fill-opacity="1" class="CASC_region"/>
                <path id="Southeast" d="M 522.77 34.09 L 517.45 31.78 L 515.79 31.67 L 516.46 33.06 L 520.04 35.78 L 522.77 34.09 Z" fill-rule="evenodd" stroke="rgb(148,148,148)" fill="rgb(255,255,255)" font-size="4.36" stroke-width="2.56" stroke-dasharray="none" stroke-linecap="butt" stroke-linejoin="round" stroke-miterlimit="10" stroke-opacity="1" fill-opacity="1" class="CASC_region"/>
                <path id="Southeast" d="M 509.01 111.89 L 511.65 105.28 L 516.61 96.94 L 522.7 89.86 L 523.08 85.24 L 523.92 83.06 L 527.01 78.49 L 532.32 69.08 L 533.63 66.13 L 534.07 62.97 L 534.3 56.14 L 534.8 51.75 L 533.44 50.74 L 532.73 47.53 L 533.28 42.71 L 531.79 43.25 L 527.37 42.21 L 524.08 40.73 L 522.66 41.97 L 523.08 43.91 L 520.14 48.17 L 515.43 50.41 L 512.76 52.72 L 511.93 55.52 L 510.65 57.21 L 508.07 57.64 L 507.35 59.71 L 505.68 61.25 L 498.46 70.51 L 501.7 75.95 L 499.33 75.32 L 497.65 73.52 L 495.88 75.82 L 495.12 80.43 L 496.33 80.63 L 496.95 86.02 L 493.7 93.66 L 491.58 93.65 L 489.23 94.93 L 488.38 96.67 L 485.96 97.73 L 485.53 99.83 L 483.9 100.4 L 482.37 102.53 L 477.26 104.97 L 474.28 104.52 L 473.25 103.12 L 468.07 98.92 L 462.12 97.14 L 462.16 98.79 L 460.66 100.64 L 454.45 103.91 L 449.1 105.45 L 444.98 105.51 L 434.32 102.86 L 432.67 102.28 L 429.43 104.27 L 428.76 107.74 L 426.93 105.49 L 427.01 103.61 L 423.51 103.21 L 422.83 102.59 L 417.04 103.06 L 411.1 100.64 L 409.88 99.51 L 408.7 100.1 L 407.68 103.22 L 405.46 106.71 L 406.32 110.96 L 383.59 109.65 L 383.5 111.32 L 384.7 113.62 L 384.56 117.26 L 385.93 118.93 L 386.39 121.79 L 389.51 124.42 L 391.46 128.96 L 388.69 131.03 L 387.22 137.22 L 387.71 138.41 L 378.4 138.02 L 353.61 137.41 L 353.44 145.01 L 349.33 144.91 L 348.21 146.13 L 348.44 171.23 L 346.07 187 L 362.98 187.36 L 382.47 188.11 L 396.65 188.9 L 397.63 185.73 L 394.52 181.58 L 401.86 182.11 L 403.32 184.02 L 402.95 186.6 L 403.58 189.35 L 404.96 189.46 L 420.38 190.62 L 419.97 193.18 L 422.48 192.75 L 439.58 194.58 L 445.26 194.79 L 452.41 195.63 L 459.79 196.08 L 469.4 197.09 L 469.53 197.37 L 491.96 200.35 L 507.52 202.19 L 527.44 205.66 L 545.16 209.16 L 556.77 211.69 L 557.3 206.85 L 555.73 205.46 L 552.13 203.79 L 553.06 202 L 556.27 203.42 L 559.57 203.29 L 561.09 199.09 L 559.4 197.95 L 557.34 193.94 L 551.95 193.66 L 553.88 192.22 L 552.94 189.21 L 556.97 188.18 L 555.39 186.02 L 554.75 183.42 L 552.09 183.62 L 547.35 181.32 L 543.66 177.61 L 541.48 173.72 L 540.81 169.95 L 535.8 168.85 L 534.12 167.8 L 532.25 166.72 L 530.08 163.99 L 528.31 159.88 L 528.35 156.93 L 524.48 152.37 L 521.66 149.7 L 520.23 147.3 L 516.63 144.84 L 515.42 142.35 L 513.76 141.23 L 511.11 137.54 L 508.9 132.7 L 508.8 129.72 L 506.98 122.24 L 507.36 117.89 L 509.01 111.89 Z" fill-rule="evenodd" stroke="rgb(148,148,148)" fill="rgb(255,255,255)" font-size="4.36" stroke-width="2.56" stroke-dasharray="none" stroke-linecap="butt" stroke-linejoin="round" stroke-miterlimit="10" stroke-opacity="1" fill-opacity="1" class="CASC_region"/>
                <path id="Southwest" d="M 172.84 123.99 L 148.58 127.6 L 125.73 140.76 L 107.27 151.85 L 108.99 154.76 L 80.41 158.16 L 79.43 160.35 L 80.01 163.22 L 79.91 166.86 L 78.54 170.28 L 73.13 177.34 L 69.49 178.39 L 70.03 179.71 L 69.2 182.64 L 65.87 183.07 L 61.69 186.23 L 61.45 187.86 L 58.74 190.91 L 55.17 191.75 L 52.39 193.42 L 48.58 194.04 L 47.1 196.4 L 48.46 199.91 L 49.04 202.99 L 48.67 204.71 L 46.75 206.35 L 47.63 208.42 L 46.35 209.61 L 45.2 212.51 L 44.03 213.4 L 41.25 221.9 L 39.77 224.13 L 40.68 228.58 L 42.8 230.51 L 42.49 232.49 L 39.94 233.57 L 37.64 237.79 L 38.33 240.02 L 37.72 242.61 L 42.09 243.55 L 40.74 245.65 L 42.49 249.04 L 40.3 250.61 L 39.38 246.77 L 37.2 248.31 L 35.22 250.94 L 35.76 253.93 L 34.89 257.28 L 33.21 259.49 L 32.59 261.68 L 30.5 265.56 L 31.4 267.38 L 31.3 272.06 L 32.69 274.4 L 32.95 278.49 L 31.4 283.03 L 29.45 285.97 L 29.73 288.54 L 34.14 293.74 L 34.92 296.16 L 37.45 301.16 L 37.76 305.09 L 36.94 306.45 L 38.29 309.25 L 46.98 306.65 L 56.81 303.95 L 70.34 299.96 L 80.87 297.19 L 94.14 293.83 L 111.26 289.94 L 117.99 288.39 L 141.94 283.45 L 143.46 283.08 L 172.96 278.11 L 170.69 263.94 L 176.44 263 L 191.75 260.85 L 188.06 234.27 L 186.3 222.22 L 186.28 220.63 L 183.96 204.1 L 172.84 123.99 Z" fill-rule="evenodd" stroke="rgb(148,148,148)" fill="rgb(255,255,255)" font-size="4.36" stroke-width="2.56" stroke-dasharray="none" stroke-linecap="butt" stroke-linejoin="round" stroke-miterlimit="10" stroke-opacity="1" fill-opacity="1" class="CASC_region"/>
              </g>
            </g>
          </g>
          <g id="layout::spacer.8-6-8-6.1"/>
          <g id="layout::spacer.8-4-8-4.1"/>
          <g id="layout::spacer.6-6-6-6.1"/>
          <g id="layout::spacer.6-4-6-4.1"/>
          <g id="layout::axis-t.6-5-6-5.1"/>
          <g id="layout::axis-l.7-4-7-4.1">
            <g id="layout::axis-l.7-4-7-4::GRID.VP.2.1">
              <g id="axis-l.7-4-7-4.1">
                <g id="layout::axis-l.7-4-7-4::GRID.VP.2::axis.1">
                  <g id="axis.1">
                    <g id="layout::axis-l.7-4-7-4::GRID.VP.2::axis::axis.1-1-1-1.1"/>
                    <g id="layout::axis-l.7-4-7-4::GRID.VP.2::axis::axis.1-2-1-2.1"/>
                  </g>
                </g>
              </g>
            </g>
          </g>
          <g id="layout::axis-r.7-6-7-6.1"/>
          <g id="layout::axis-b.8-5-8-5.1">
            <g id="layout::axis-b.8-5-8-5::GRID.VP.1.1">
              <g id="axis-b.8-5-8-5.1">
                <g id="layout::axis-b.8-5-8-5::GRID.VP.1::axis.1">
                  <g id="axis.2">
                    <g id="layout::axis-b.8-5-8-5::GRID.VP.1::axis::axis.1-1-1-1.1"/>
                    <g id="layout::axis-b.8-5-8-5::GRID.VP.1::axis::axis.2-1-2-1.1"/>
                  </g>
                </g>
              </g>
            </g>
          </g>
          <g id="layout::xlab-t.5-5-5-5.1"/>
          <g id="layout::xlab-b.9-5-9-5.1"/>
          <g id="layout::ylab-l.7-3-7-3.1"/>
          <g id="layout::ylab-r.7-7-7-7.1"/>
          <g id="layout::subtitle.4-5-4-5.1"/>
          <g id="layout::title.3-5-3-5.1"/>
          <g id="layout::caption.10-5-10-5.1"/>
          <g id="layout::tag.2-2-2-2.1"/>
        </g>
      </g>
    </g>
  </g>
</svg>