<?xml version="1.0" encoding="UTF-8"?>
<svg xmlns="http://www.w3.org/2000/svg" width="1500" height="700" viewBox="0 0 1500 700">
  <defs>
    <style>
      .cls-1 {
        font-family: SourceSansPro-Regular, 'Source Sans Pro';
        font-size: 41px;
      }

      .cls-1, .cls-2, .cls-3 {
        fill: #333534;
      }

      .cls-4 {
        stroke: #333534;
      }

      .cls-4, .cls-5, .cls-6, .cls-7, .cls-8 {
        fill: none;
        stroke-linecap: round;
        stroke-miterlimit: 10;
      }

      .cls-4, .cls-6 {
        stroke-width: 6px;
      }

      .cls-5 {
        stroke: #fff;
        stroke-width: 7px;
      }

      .cls-5, .cls-6, .cls-8, .cls-9 {
        fill-rule: evenodd;
      }

      .cls-10 {
        letter-spacing: 0em;
      }

      .cls-11 {
        letter-spacing: 0em;
      }

      .cls-6 {
        stroke: #666;
      }

      .cls-12 {
        letter-spacing: 0em;
      }

      .cls-13 {
        letter-spacing: 0em;
      }

      .cls-7 {
        stroke: #000;
        stroke-width: 4px;
      }

      .cls-14 {
        letter-spacing: 0em;
      }

      .cls-15 {
        letter-spacing: 0em;
      }

      .cls-16 {
        letter-spacing: 0em;
      }

      .cls-17 {
        letter-spacing: 0em;
      }

      .cls-8 {
        stroke: #c34c4a;
        stroke-width: 5px;
      }

      .cls-9 {
        fill: #e6e6e6;
      }

      .cls-18 {
        letter-spacing: 0em;
      }

      .cls-19 {
        letter-spacing: 0em;
      }

      .cls-3 {
        font-family: SourceSansRoman-Regular, 'Source Sans Variable';
        font-size: 55px;
        font-variation-settings: 'wght' 400;
      }
    </style>
  </defs>
  <g id="droughtFill">
    <g>
      <path class="cls-9" d="m251.7,262.8c11.7,10.7,24.7,21.8,39.2,32.9-5.9,27.4-12.4,44.1-20.8,36.3-9.4-8.7-14.6-35.7-18.5-69.2Z"/>
      <path class="cls-9" d="m381,353.1c29.7,15.9,63.6,31.4,102.6,46.3-2.5,10-6.4,16.5-13.4,16.5-27,0,2,51-57,47-26.5-1.8-32.2-52.7-32.2-109.9Z"/>
      <path class="cls-9" d="m539.6,419.2h0c-3.8,24.4-8,38.3-13.4,32.8-6.2-6.2-8.7-21.6-9.5-40.5,7.5,2.6,15.1,5.1,22.9,7.7Z"/>
      <path class="cls-9" d="m633,445.8c13.9,3.5,28.3,6.9,43.1,10.2-6.3,13.8-13.6,24.8-24.8,27-7.9,1.5-13.7-13.2-18.2-37.2Z"/>
      <path class="cls-9" d="m773.2,475c35.5,16.3,96,5.7,136,19-12,45-52,79.3-100,66-14.3-4-30-39.9-36-85Z"/>
    </g>
  </g>
  <g id="streamflow">
    <path class="cls-6" d="m174.2,115.8s21-70.8,49-34.8,19,225,47,251,35-219,66-229,6,120,21,128,3-54,22-37-25,265,34,269,30-47,57-47,8.6-98,34.8-118-1.8,131,21.2,154,24-300,61-295,28,333,64,326,32-105,81-93c49,12,34.9,165.7,77,170,118,12,86-107,135-107s38,30,82,26,29.5-116.1,94-65-4.3,106.5,57,85c19.2-6.7,50-24.5,74-27s65.1,22.5,91,23c37.7.7,53-9,53-9"/>
  </g>
  <g id="Layer_1" data-name="Layer 1">
    <g>
      <g>
        <line class="cls-4" x1="143.5" y1="620.5" x2="143.5" y2="43.1"/>
        <path class="cls-2" d="m143.5,25c3.2,8.5,8.6,19.1,14.3,25.6l-14.3-5.2-14.3,5.2c5.7-6.6,11.1-17.1,14.3-25.6Z"/>
      </g>
      <g>
        <line class="cls-4" x1="144" y1="620" x2="1406.9" y2="620"/>
        <path class="cls-2" d="m1425,620c-8.5,3.2-19.1,8.6-25.6,14.3l5.2-14.3-5.2-14.3c6.6,5.7,17.1,11.1,25.6,14.3Z"/>
      </g>
    </g>
    <path class="cls-5" d="m174.2,178c88,105,255,342,1221,341"/>
    <text class="cls-3" transform="translate(611.4 679.7)"><tspan x="0" y="0">Day </tspan><tspan class="cls-14" x="98.2" y="0">o</tspan><tspan x="127.9" y="0">f </tspan><tspan class="cls-15" x="155" y="0">y</tspan><tspan class="cls-12" x="180.5" y="0">e</tspan><tspan x="207" y="0">ar</tspan></text>
    <text class="cls-3" transform="translate(120.7 504.4) rotate(-90)"><tspan class="cls-10" x="0" y="0">S</tspan><tspan x="28.1" y="0">t</tspan><tspan class="cls-19" x="46.6" y="0">r</tspan><tspan class="cls-12" x="65.2" y="0">e</tspan><tspan x="91.7" y="0">amfl</tspan><tspan class="cls-15" x="195.1" y="0">o</tspan><tspan x="224.7" y="0">w</tspan></text>
    <text class="cls-1" transform="translate(285.7 45.3)"><tspan class="cls-11" x="0" y="0">S</tspan><tspan class="cls-17" x="20.9" y="0">t</tspan><tspan class="cls-18" x="34.8" y="0">r</tspan><tspan class="cls-13" x="48.7" y="0">e</tspan><tspan x="68.4" y="0">amfl</tspan><tspan class="cls-16" x="145.5" y="0">o</tspan><tspan x="167.6" y="0">w</tspan></text>
    <g>
      <line class="cls-7" x1="271.2" y1="45" x2="243.2" y2="71.4"/>
      <path d="m236.2,78c2.1-4.3,4.3-10.3,4.7-14.9l3.2,7.4,7.2,3.6c-4.6.2-10.7,2-15.2,3.8Z"/>
    </g>
    <text class="cls-1" transform="translate(199 408)"><tspan x="0" y="0">Th</tspan><tspan class="cls-18" x="44.3" y="0">r</tspan><tspan x="58.1" y="0">eshold</tspan></text>
    <g>
      <line class="cls-7" x1="308.2" y1="374" x2="334.5" y2="346.9"/>
      <path d="m341.2,340c-2,4.4-3.8,10.5-4.1,15.1l-3.5-7.3-7.4-3.3c4.6-.4,10.6-2.4,15-4.5Z"/>
    </g>
    <g>
      <path class="cls-2" d="m487.1,521.9h6.7c8.3,0,12.7,4.8,12.7,13.3s-4.4,13.6-12.5,13.6h-6.9v-26.9Zm6.5,24.1c6.3,0,9.4-3.9,9.4-10.7s-3.1-10.5-9.4-10.5h-3v21.2h3Z"/>
      <path class="cls-2" d="m512.1,528.9h2.8l.3,3.6h.1c1.4-2.5,3.4-4.1,5.7-4.1s1.5.1,2.1.4l-.7,2.9c-.6-.2-1-.2-1.8-.2-1.7,0-3.7,1.2-5,4.6v12.8h-3.4v-19.9Z"/>
      <path class="cls-2" d="m524.4,538.9c0-6.7,4.3-10.5,9.2-10.5s9.3,3.8,9.3,10.5-4.4,10.4-9.3,10.4-9.2-3.8-9.2-10.4Zm15,0c0-4.6-2.3-7.7-5.7-7.7s-5.7,3.1-5.7,7.7,2.3,7.6,5.7,7.6,5.7-3,5.7-7.6Z"/>
      <path class="cls-2" d="m547.9,541.5v-12.6h3.4v12.2c0,3.7,1.1,5.3,3.8,5.3s3.4-1,5.3-3.4v-14.1h3.4v19.9h-2.8l-.3-3.1h-.1c-1.8,2.2-3.8,3.6-6.6,3.6-4.2,0-6.1-2.7-6.1-7.8Z"/>
      <path class="cls-2" d="m568.9,552.6c0-1.7,1.1-3.3,2.9-4.5v-.2c-1-.6-1.8-1.7-1.8-3.2s1.1-3,2.2-3.7v-.2c-1.3-1.1-2.6-3-2.6-5.4,0-4.3,3.4-7.1,7.5-7.1s2.1.2,2.8.5h6.9v2.6h-4.1c.9.9,1.6,2.4,1.6,4.1,0,4.3-3.2,6.9-7.3,6.9s-2-.2-3-.7c-.7.6-1.3,1.3-1.3,2.4s.8,2.1,3.5,2.1h3.9c4.6,0,7,1.5,7,4.8s-3.9,6.9-10.1,6.9-8.2-1.9-8.2-5.4Zm15-1c0-1.8-1.4-2.5-4-2.5h-3.4c-.8,0-1.7,0-2.6-.3-1.4,1-2.1,2.2-2.1,3.4,0,2.1,2.2,3.4,5.8,3.4s6.3-2,6.3-4Zm-2.5-16.1c0-2.9-1.9-4.6-4.2-4.6s-4.2,1.7-4.2,4.6,1.9,4.7,4.2,4.7,4.2-1.8,4.2-4.7Z"/>
      <path class="cls-2" d="m591.2,519.6h3.4v12.1c1.7-1.8,3.7-3.3,6.5-3.3,4.2,0,6.1,2.7,6.1,7.8v12.6h-3.4v-12.2c0-3.7-1.1-5.3-3.8-5.3s-3.4,1-5.4,3v14.4h-3.4v-29.2Z"/>
      <path class="cls-2" d="m614,542.6v-11h-3v-2.5l3.1-.2.4-6.4h2.8v6.4h5.4v2.7h-5.4v11.1c0,2.4.8,3.8,3.1,3.8s1.5-.1,2.3-.5l.7,2.4c-1.1.5-2.4.9-3.8.9-4.3,0-5.7-2.7-5.7-6.7Z"/>
      <path class="cls-2" d="m487.1,565.9h15.5v2.9h-12.1v8.4h10.2v2.9h-10.2v9.8h12.5v2.9h-15.9v-26.9Z"/>
      <path class="cls-2" d="m505.1,572.9h3.5l3.7,11.3c.6,2,1.2,4,1.8,5.9h.2c.6-1.9,1.2-3.9,1.8-5.9l3.7-11.3h3.4l-7.1,19.9h-4l-7.2-19.9Z"/>
      <path class="cls-2" d="m525.6,582.8c0-6.5,4.4-10.5,8.9-10.5s8,3.6,8,9.3,0,1.4-.2,2h-13.4c.3,4.1,2.8,6.8,6.6,6.8s3.6-.5,5-1.5l1.2,2.2c-1.7,1.2-3.9,2.1-6.6,2.1-5.3,0-9.5-3.9-9.5-10.5Zm13.9-1.7c0-3.9-1.8-6-4.9-6s-5.2,2.2-5.7,6h10.5Z"/>
      <path class="cls-2" d="m547.4,572.9h2.8l.3,2.9h.1c1.9-1.9,3.9-3.4,6.7-3.4,4.2,0,6.1,2.7,6.1,7.8v12.6h-3.4v-12.2c0-3.7-1.1-5.3-3.8-5.3s-3.4,1-5.4,3v14.4h-3.4v-19.9Z"/>
      <path class="cls-2" d="m570.4,586.6v-11h-3v-2.5l3.1-.2.4-6.4h2.8v6.4h5.4v2.7h-5.4v11.1c0,2.4.8,3.8,3.1,3.8s1.5-.1,2.3-.5l.7,2.4c-1.1.5-2.4.9-3.8.9-4.3,0-5.7-2.7-5.7-6.7Z"/>
      <path class="cls-2" d="m581.1,590.4l1.6-2c1.7,1.4,3.5,2.2,6,2.2s3.9-1.4,3.9-3.1-2.2-2.9-4.5-3.7c-3-1.1-5.9-2.5-5.9-5.8s2.5-5.7,6.9-5.7,4.6.9,6.2,2.3l-1.6,2c-1.4-1-2.8-1.6-4.6-1.6-2.5,0-3.6,1.4-3.6,2.9s1.7,2.5,4.2,3.4c3.1,1.1,6.1,2.5,6.1,6.1s-2.6,5.9-7.3,5.9-5.6-1.1-7.4-2.9Z"/>
    </g>
    <g>
      <line class="cls-7" x1="476.2" y1="522" x2="438.7" y2="475.3"/>
      <path d="m432.7,467.8c4.2,2.5,9.9,5.1,14.5,5.9l-7.7,2.6-4.2,6.9c.2-4.6-1.1-10.8-2.6-15.4Z"/>
    </g>
    <g>
      <line class="cls-7" x1="518.2" y1="520" x2="526.6" y2="471.5"/>
      <path d="m528.2,462c.9,4.8,2.8,10.8,5.2,14.8l-7-4-8,1.4c3.6-2.9,7.4-8,9.8-12.2Z"/>
    </g>
    <g>
      <line class="cls-7" x1="588.2" y1="520" x2="630.5" y2="488.7"/>
      <path d="m638.2,483c-2.6,4.1-5.5,9.7-6.5,14.3l-2.3-7.8-6.7-4.5c4.6.4,10.9-.7,15.5-2Z"/>
    </g>
  </g>
  <g id="threshold">
    <path class="cls-8" d="m174.2,178c88,105,255,342,1221,341"/>
  </g>
</svg>