<?xml version="1.0" encoding="UTF-8"?>
<svg xmlns="http://www.w3.org/2000/svg" xmlns:xlink="http://www.w3.org/1999/xlink" width="360px" height="360px" viewBox="0 0 360 360" version="1.1">
  <metadata xmlns:gridsvg="http://www.stat.auckland.ac.nz/~paul/R/gridSVG/">
    <gridsvg:generator name="gridSVG" version="1.7-5" time="2023-06-15 13:15:46"/>
    <gridsvg:argument name="name" value="src/assets/svgs/polar_wedges.svg"/>
    <gridsvg:argument name="exportCoords" value="none"/>
    <gridsvg:argument name="exportMappings" value="none"/>
    <gridsvg:argument name="exportJS" value="none"/>
    <gridsvg:argument name="res" value="72"/>
    <gridsvg:argument name="prefix" value=""/>
    <gridsvg:argument name="addClasses" value="FALSE"/>
    <gridsvg:argument name="indent" value="TRUE"/>
    <gridsvg:argument name="htmlWrapper" value="FALSE"/>
    <gridsvg:argument name="usePaths" value="vpPaths"/>
    <gridsvg:argument name="uniqueNames" value="TRUE"/>
    <gridsvg:separator name="id.sep" value="."/>
    <gridsvg:separator name="gPath.sep" value="::"/>
    <gridsvg:separator name="vpPath.sep" value="::"/>
  </metadata>
  <g transform="translate(0, 360) scale(1, -1)">
    <g id="gridSVG" fill="none" stroke="rgb(0,0,0)" stroke-dasharray="none" stroke-width="0.75" font-size="12" font-family="Helvetica, Arial, FreeSans, Liberation Sans, Nimbus Sans L, sans-serif" opacity="1" stroke-linecap="round" stroke-linejoin="round" stroke-miterlimit="10" stroke-opacity="1" fill-opacity="0" font-weight="normal" font-style="normal">
      <g id="layout.1">
        <g id="layout.2">
          <defs>
            <clipPath id="layout::panel.7-5-7-5.1.clipPath">
              <rect x="0" y="0" width="360" height="360" fill="none" stroke="none"/>
            </clipPath>
          </defs>
          <g id="layout::panel.7-5-7-5.1" clip-path="url(#layout::panel.7-5-7-5.1.clipPath)">
            <g id="panel.7-5-7-5.1">
              <g id="grill.gTree.34.1"/>
              <g id="geom_rect.gTree.26.1">
                <g id="Midwest" class="wedge">
                  <polygon id="geom_polygon.polygon.12.1.1" points="180,324 184.97,323.91 189.93,323.66 194.89,323.23 199.82,322.63 204.73,321.86 209.62,320.92 214.46,319.82 219.27,318.54 224.03,317.1 228.73,315.5 233.38,313.74 237.96,311.82 242.48,309.74 246.92,307.51 251.28,305.12 255.56,302.58 259.74,299.9 263.83,297.08 267.83,294.12 271.71,291.02 275.49,287.79 279.15,284.43 282.7,280.94 286.12,277.34 289.42,273.61 292.58,269.78 288.7,266.69 284.82,263.59 280.94,260.49 277.05,257.4 273.17,254.3 269.29,251.21 265.41,248.11 261.53,245.01 257.64,241.92 253.76,238.82 249.88,235.73 246,232.63 242.12,229.54 238.23,226.44 234.35,223.34 230.47,220.25 226.59,217.15 222.7,214.06 218.82,210.96 214.94,207.86 211.06,204.77 207.18,201.67 203.29,198.58 199.41,195.48 195.53,192.38 191.65,189.29 187.76,186.19 183.88,183.1 180,180 180,180 180,184.97 180,189.93 180,194.9 180,199.86 180,204.83 180,209.79 180,214.76 180,219.72 180,224.69 180,229.66 180,234.62 180,239.59 180,244.55 180,249.52 180,254.48 180,259.45 180,264.41 180,269.38 180,274.34 180,279.31 180,284.28 180,289.24 180,294.21 180,299.17 180,304.14 180,309.1 180,314.07 180,319.03 180,324" stroke="rgb(248,118,109)" fill="rgb(255,255,255)" stroke-width="1.07" stroke-dasharray="none" stroke-linecap="butt" stroke-linejoin="miter" stroke-miterlimit="10" stroke-opacity="1" fill-opacity="0"/>
                </g>
                <g id="Northeast" class="wedge">
                  <polygon id="geom_polygon.polygon.14.1.1" points="292.58,269.78 295.62,265.84 298.51,261.8 301.26,257.66 303.87,253.43 306.33,249.11 308.64,244.71 310.8,240.23 312.8,235.68 314.64,231.06 316.32,226.39 317.84,221.65 319.2,216.87 320.39,212.04 321.41,207.18 322.27,202.28 322.95,197.36 323.46,192.41 323.81,187.45 323.98,182.49 323.98,177.51 323.81,172.55 323.46,167.59 322.95,162.64 322.27,157.72 321.41,152.82 320.39,147.96 315.55,149.06 310.71,150.17 305.87,151.27 301.03,152.38 296.18,153.48 291.34,154.59 286.5,155.69 281.66,156.8 276.82,157.9 271.98,159.01 267.14,160.11 262.3,161.22 257.46,162.32 252.62,163.43 247.77,164.53 242.93,165.64 238.09,166.74 233.25,167.85 228.41,168.95 223.57,170.06 218.73,171.16 213.89,172.27 209.05,173.37 204.21,174.48 199.36,175.58 194.52,176.69 189.68,177.79 184.84,178.9 180,180 180,180 183.88,183.1 187.76,186.19 191.65,189.29 195.53,192.38 199.41,195.48 203.29,198.58 207.18,201.67 211.06,204.77 214.94,207.86 218.82,210.96 222.7,214.06 226.59,217.15 230.47,220.25 234.35,223.34 238.23,226.44 242.12,229.54 246,232.63 249.88,235.73 253.76,238.82 257.64,241.92 261.53,245.01 265.41,248.11 269.29,251.21 273.17,254.3 277.05,257.4 280.94,260.49 284.82,263.59 288.7,266.69 292.58,269.78" stroke="rgb(196,154,0)" fill="rgb(255,255,255)" stroke-width="1.07" stroke-dasharray="none" stroke-linecap="butt" stroke-linejoin="miter" stroke-miterlimit="10" stroke-opacity="1" fill-opacity="0"/>
                </g>
                <g id="Southeast" class="wedge">
                  <polygon id="geom_polygon.polygon.16.1.1" points="320.39,147.96 319.2,143.13 317.84,138.35 316.32,133.61 314.64,128.94 312.8,124.32 310.8,119.77 308.64,115.29 306.33,110.89 303.87,106.57 301.26,102.34 298.51,98.2 295.62,94.16 292.58,90.22 289.42,86.39 286.12,82.66 282.7,79.06 279.15,75.57 275.49,72.21 271.71,68.98 267.83,65.88 263.83,62.92 259.74,60.1 255.56,57.42 251.28,54.88 246.92,52.49 242.48,50.26 240.32,54.73 238.17,59.21 236.02,63.68 233.86,68.16 231.71,72.63 229.55,77.1 227.4,81.58 225.24,86.05 223.09,90.52 220.93,95 218.78,99.47 216.63,103.95 214.47,108.42 212.32,112.89 210.16,117.37 208.01,121.84 205.85,126.31 203.7,130.79 201.54,135.26 199.39,139.74 197.24,144.21 195.08,148.68 192.93,153.16 190.77,157.63 188.62,162.1 186.46,166.58 184.31,171.05 182.15,175.53 180,180 180,180 184.84,178.9 189.68,177.79 194.52,176.69 199.36,175.58 204.21,174.48 209.05,173.37 213.89,172.27 218.73,171.16 223.57,170.06 228.41,168.95 233.25,167.85 238.09,166.74 242.93,165.64 247.77,164.53 252.62,163.43 257.46,162.32 262.3,161.22 267.14,160.11 271.98,159.01 276.82,157.9 281.66,156.8 286.5,155.69 291.34,154.59 296.18,153.48 301.03,152.38 305.87,151.27 310.71,150.17 315.55,149.06 320.39,147.96" stroke="rgb(83,180,0)" fill="rgb(255,255,255)" stroke-width="1.07" stroke-dasharray="none" stroke-linecap="butt" stroke-linejoin="miter" stroke-miterlimit="10" stroke-opacity="1" fill-opacity="0"/>
                </g>
                <g id="South-Central" class="wedge">
                  <polygon id="geom_polygon.polygon.18.1.1" points="242.48,50.26 237.96,48.18 233.38,46.26 228.73,44.5 224.03,42.9 219.27,41.46 214.46,40.18 209.62,39.08 204.73,38.14 199.82,37.37 194.89,36.77 189.93,36.34 184.97,36.09 180,36 175.03,36.09 170.07,36.34 165.11,36.77 160.18,37.37 155.27,38.14 150.38,39.08 145.54,40.18 140.73,41.46 135.97,42.9 131.27,44.5 126.62,46.26 122.04,48.18 117.52,50.26 119.68,54.73 121.83,59.21 123.98,63.68 126.14,68.16 128.29,72.63 130.45,77.1 132.6,81.58 134.76,86.05 136.91,90.52 139.07,95 141.22,99.47 143.37,103.95 145.53,108.42 147.68,112.89 149.84,117.37 151.99,121.84 154.15,126.31 156.3,130.79 158.46,135.26 160.61,139.74 162.76,144.21 164.92,148.68 167.07,153.16 169.23,157.63 171.38,162.1 173.54,166.58 175.69,171.05 177.85,175.53 180,180 180,180 182.15,175.53 184.31,171.05 186.46,166.58 188.62,162.1 190.77,157.63 192.93,153.16 195.08,148.68 197.24,144.21 199.39,139.74 201.54,135.26 203.7,130.79 205.85,126.31 208.01,121.84 210.16,117.37 212.32,112.89 214.47,108.42 216.63,103.95 218.78,99.47 220.93,95 223.09,90.52 225.24,86.05 227.4,81.58 229.55,77.1 231.71,72.63 233.86,68.16 236.02,63.68 238.17,59.21 240.32,54.73 242.48,50.26" stroke="rgb(0,192,148)" fill="rgb(255,255,255)" stroke-width="1.07" stroke-dasharray="none" stroke-linecap="butt" stroke-linejoin="miter" stroke-miterlimit="10" stroke-opacity="1" fill-opacity="0"/>
                </g>
                <g id="Southwest" class="wedge">
                  <polygon id="geom_polygon.polygon.20.1.1" points="117.52,50.26 113.08,52.49 108.72,54.88 104.44,57.42 100.26,60.1 96.17,62.92 92.17,65.88 88.29,68.98 84.51,72.21 80.85,75.57 77.3,79.06 73.88,82.66 70.58,86.39 67.42,90.22 64.38,94.16 61.49,98.2 58.74,102.34 56.13,106.57 53.67,110.89 51.36,115.29 49.2,119.77 47.2,124.32 45.36,128.94 43.68,133.61 42.16,138.35 40.8,143.13 39.61,147.96 44.45,149.06 49.29,150.17 54.13,151.27 58.97,152.38 63.82,153.48 68.66,154.59 73.5,155.69 78.34,156.8 83.18,157.9 88.02,159.01 92.86,160.11 97.7,161.22 102.54,162.32 107.38,163.43 112.23,164.53 117.07,165.64 121.91,166.74 126.75,167.85 131.59,168.95 136.43,170.06 141.27,171.16 146.11,172.27 150.95,173.37 155.79,174.48 160.64,175.58 165.48,176.69 170.32,177.79 175.16,178.9 180,180 180,180 177.85,175.53 175.69,171.05 173.54,166.58 171.38,162.1 169.23,157.63 167.07,153.16 164.92,148.68 162.76,144.21 160.61,139.74 158.46,135.26 156.3,130.79 154.15,126.31 151.99,121.84 149.84,117.37 147.68,112.89 145.53,108.42 143.37,103.95 141.22,99.47 139.07,95 136.91,90.52 134.76,86.05 132.6,81.58 130.45,77.1 128.29,72.63 126.14,68.16 123.98,63.68 121.83,59.21 119.68,54.73 117.52,50.26" stroke="rgb(0,182,235)" fill="rgb(255,255,255)" stroke-width="1.07" stroke-dasharray="none" stroke-linecap="butt" stroke-linejoin="miter" stroke-miterlimit="10" stroke-opacity="1" fill-opacity="0"/>
                </g>
                <g id="Northwest" class="wedge">
                  <polygon id="geom_polygon.polygon.22.1.1" points="39.61,147.96 38.59,152.82 37.73,157.72 37.05,162.64 36.54,167.59 36.19,172.55 36.02,177.51 36.02,182.49 36.19,187.45 36.54,192.41 37.05,197.36 37.73,202.28 38.59,207.18 39.61,212.04 40.8,216.87 42.16,221.65 43.68,226.39 45.36,231.06 47.2,235.68 49.2,240.23 51.36,244.71 53.67,249.11 56.13,253.43 58.74,257.66 61.49,261.8 64.38,265.84 67.42,269.78 71.3,266.69 75.18,263.59 79.06,260.49 82.95,257.4 86.83,254.3 90.71,251.21 94.59,248.11 98.47,245.01 102.36,241.92 106.24,238.82 110.12,235.73 114,232.63 117.88,229.54 121.77,226.44 125.65,223.34 129.53,220.25 133.41,217.15 137.3,214.06 141.18,210.96 145.06,207.86 148.94,204.77 152.82,201.67 156.71,198.58 160.59,195.48 164.47,192.38 168.35,189.29 172.24,186.19 176.12,183.1 180,180 180,180 175.16,178.9 170.32,177.79 165.48,176.69 160.64,175.58 155.79,174.48 150.95,173.37 146.11,172.27 141.27,171.16 136.43,170.06 131.59,168.95 126.75,167.85 121.91,166.74 117.07,165.64 112.23,164.53 107.38,163.43 102.54,162.32 97.7,161.22 92.86,160.11 88.02,159.01 83.18,157.9 78.34,156.8 73.5,155.69 68.66,154.59 63.82,153.48 58.97,152.38 54.13,151.27 49.29,150.17 44.45,149.06 39.61,147.96" stroke="rgb(165,138,255)" fill="rgb(255,255,255)" stroke-width="1.07" stroke-dasharray="none" stroke-linecap="butt" stroke-linejoin="miter" stroke-miterlimit="10" stroke-opacity="1" fill-opacity="0"/>
                </g>
                <g id="North-Central" class="wedge">
                  <polygon id="geom_polygon.polygon.24.1.1" points="67.42,269.78 70.58,273.61 73.88,277.34 77.3,280.94 80.85,284.43 84.51,287.79 88.29,291.02 92.17,294.12 96.17,297.08 100.26,299.9 104.44,302.58 108.72,305.12 113.08,307.51 117.52,309.74 122.04,311.82 126.62,313.74 131.27,315.5 135.97,317.1 140.73,318.54 145.54,319.82 150.38,320.92 155.27,321.86 160.18,322.63 165.11,323.23 170.07,323.66 175.03,323.91 180,324 180,319.03 180,314.07 180,309.1 180,304.14 180,299.17 180,294.21 180,289.24 180,284.28 180,279.31 180,274.34 180,269.38 180,264.41 180,259.45 180,254.48 180,249.52 180,244.55 180,239.59 180,234.62 180,229.66 180,224.69 180,219.72 180,214.76 180,209.79 180,204.83 180,199.86 180,194.9 180,189.93 180,184.97 180,180 180,180 176.12,183.1 172.24,186.19 168.35,189.29 164.47,192.38 160.59,195.48 156.71,198.58 152.82,201.67 148.94,204.77 145.06,207.86 141.18,210.96 137.3,214.06 133.41,217.15 129.53,220.25 125.65,223.34 121.77,226.44 117.88,229.54 114,232.63 110.12,235.73 106.24,238.82 102.36,241.92 98.47,245.01 94.59,248.11 90.71,251.21 86.83,254.3 82.95,257.4 79.06,260.49 75.18,263.59 71.3,266.69 67.42,269.78" stroke="rgb(251,97,215)" fill="rgb(255,255,255)" stroke-width="1.07" stroke-dasharray="none" stroke-linecap="butt" stroke-linejoin="miter" stroke-miterlimit="10" stroke-opacity="1" fill-opacity="0"/>
                </g>
              </g>
              <g id="GRID.gTree.27.1"/>
            </g>
          </g>
          <g id="layout::spacer.8-6-8-6.1"/>
          <g id="layout::spacer.8-4-8-4.1"/>
          <g id="layout::spacer.6-6-6-6.1"/>
          <g id="layout::spacer.6-4-6-4.1"/>
          <g id="layout::axis-t.6-5-6-5.1"/>
          <g id="layout::axis-l.7-4-7-4.1">
            <g id="layout::axis-l.7-4-7-4::GRID.VP.2.1">
              <g id="axis-l.7-4-7-4.1">
                <g id="layout::axis-l.7-4-7-4::GRID.VP.2::axis.1">
                  <g id="axis.1">
                    <g id="layout::axis-l.7-4-7-4::GRID.VP.2::axis::axis.1-1-1-1.1"/>
                    <g id="layout::axis-l.7-4-7-4::GRID.VP.2::axis::axis.1-2-1-2.1"/>
                  </g>
                </g>
              </g>
            </g>
          </g>
          <g id="layout::axis-r.7-6-7-6.1"/>
          <g id="layout::axis-b.8-5-8-5.1">
            <g id="layout::axis-b.8-5-8-5::GRID.VP.1.1">
              <g id="axis-b.8-5-8-5.1">
                <g id="layout::axis-b.8-5-8-5::GRID.VP.1::axis.1">
                  <g id="axis.2">
                    <g id="layout::axis-b.8-5-8-5::GRID.VP.1::axis::axis.1-1-1-1.1"/>
                    <g id="layout::axis-b.8-5-8-5::GRID.VP.1::axis::axis.2-1-2-1.1"/>
                  </g>
                </g>
              </g>
            </g>
          </g>
          <g id="layout::xlab-t.5-5-5-5.1"/>
          <g id="layout::xlab-b.9-5-9-5.1"/>
          <g id="layout::ylab-l.7-3-7-3.1"/>
          <g id="layout::ylab-r.7-7-7-7.1"/>
          <g id="layout::subtitle.4-5-4-5.1"/>
          <g id="layout::title.3-5-3-5.1"/>
          <g id="layout::caption.10-5-10-5.1"/>
          <g id="layout::tag.2-2-2-2.1"/>
        </g>
      </g>
    </g>
  </g>
</svg>