<?xml version="1.0" encoding="UTF-8"?>
<svg xmlns="http://www.w3.org/2000/svg" xmlns:xlink="http://www.w3.org/1999/xlink" width="360px" height="360px" viewBox="0 0 360 360" version="1.1">
  <metadata xmlns:gridsvg="http://www.stat.auckland.ac.nz/~paul/R/gridSVG/">
    <gridsvg:generator name="gridSVG" version="1.7-5" time="2023-07-13 15:27:10"/>
    <gridsvg:argument name="name" value="src/assets/svgs/polar_wedges.svg"/>
    <gridsvg:argument name="exportCoords" value="none"/>
    <gridsvg:argument name="exportMappings" value="none"/>
    <gridsvg:argument name="exportJS" value="none"/>
    <gridsvg:argument name="res" value="72"/>
    <gridsvg:argument name="prefix" value=""/>
    <gridsvg:argument name="addClasses" value="FALSE"/>
    <gridsvg:argument name="indent" value="TRUE"/>
    <gridsvg:argument name="htmlWrapper" value="FALSE"/>
    <gridsvg:argument name="usePaths" value="vpPaths"/>
    <gridsvg:argument name="uniqueNames" value="TRUE"/>
    <gridsvg:separator name="id.sep" value="."/>
    <gridsvg:separator name="gPath.sep" value="::"/>
    <gridsvg:separator name="vpPath.sep" value="::"/>
  </metadata>
  <g transform="translate(0, 360) scale(1, -1)">
    <g id="gridSVG" fill="none" stroke="rgb(0,0,0)" stroke-dasharray="none" stroke-width="0.75" font-size="12" font-family="Helvetica, Arial, FreeSans, Liberation Sans, Nimbus Sans L, sans-serif" opacity="1" stroke-linecap="round" stroke-linejoin="round" stroke-miterlimit="10" stroke-opacity="1" fill-opacity="0" font-weight="normal" font-style="normal">
      <g id="layout.1">
        <g id="layout.2">
          <defs>
            <clipPath id="layout::background.1-9-12-1.1.clipPath">
              <rect x="0" y="0" width="360" height="360" fill="none" stroke="none"/>
            </clipPath>
          </defs>
          <g id="layout::background.1-9-12-1.1" clip-path="url(#layout::background.1-9-12-1.1.clipPath)">
            <g id="background.1-9-12-1.1"/>
          </g>
          <defs>
            <clipPath id="layout::panel.7-5-7-5.1.clipPath">
              <rect x="2.74" y="2.74" width="357.26" height="357.26" fill="none" stroke="none"/>
            </clipPath>
          </defs>
          <g id="layout::panel.7-5-7-5.1" clip-path="url(#layout::panel.7-5-7-5.1.clipPath)">
            <g id="wrapper">
              <g id="panel-1.gTree.38.1">
                <g id="grill.gTree.36.1"/>
                <g id="geom_rect.gTree.26.1">
                  <g id="Midwest" class="wedge">
                    <polygon id="geom_polygon.polygon.12.1.1" points="181.37,324.27 186.3,324.19 191.23,323.93 196.14,323.51 201.04,322.91 205.91,322.15 210.76,321.22 215.57,320.12 220.34,318.86 225.06,317.43 229.73,315.84 234.34,314.09 238.89,312.19 243.37,310.12 247.78,307.91 252.11,305.54 256.35,303.02 260.51,300.36 264.57,297.56 268.53,294.62 272.38,291.54 276.13,288.34 279.77,285 283.29,281.54 286.68,277.96 289.95,274.27 293.1,270.47 289.24,267.4 285.39,264.32 281.54,261.25 277.69,258.18 273.83,255.11 269.98,252.03 266.13,248.96 262.28,245.89 258.42,242.82 254.57,239.75 250.72,236.67 246.86,233.6 243.01,230.53 239.16,227.46 235.31,224.38 231.45,221.31 227.6,218.24 223.75,215.17 219.9,212.09 216.04,209.02 212.19,205.95 208.34,202.88 204.49,199.8 200.63,196.73 196.78,193.66 192.93,190.59 189.08,187.51 185.22,184.44 181.37,181.37 181.37,181.37 181.37,186.3 181.37,191.23 181.37,196.15 181.37,201.08 181.37,206.01 181.37,210.94 181.37,215.86 181.37,220.79 181.37,225.72 181.37,230.65 181.37,235.57 181.37,240.5 181.37,245.43 181.37,250.36 181.37,255.29 181.37,260.21 181.37,265.14 181.37,270.07 181.37,275 181.37,279.92 181.37,284.85 181.37,289.78 181.37,294.71 181.37,299.64 181.37,304.56 181.37,309.49 181.37,314.42 181.37,319.35 181.37,324.27" stroke="rgb(0,0,0)" fill="rgb(255,255,255)" stroke-width="1.07" stroke-dasharray="none" stroke-linecap="butt" stroke-linejoin="miter" stroke-miterlimit="10" stroke-opacity="1" fill-opacity="0"/>
                  </g>
                  <g id="Northeast" class="wedge">
                    <polygon id="geom_polygon.polygon.14.1.1" points="293.1,270.47 296.11,266.56 298.98,262.55 301.71,258.44 304.3,254.24 306.74,249.95 309.03,245.59 311.17,241.14 313.16,236.63 314.99,232.04 316.66,227.4 318.17,222.71 319.51,217.96 320.69,213.17 321.71,208.34 322.55,203.48 323.23,198.6 323.74,193.69 324.08,188.77 324.25,183.84 324.25,178.9 324.08,173.97 323.74,169.05 323.23,164.14 322.55,159.26 321.71,154.4 320.69,149.57 315.89,150.67 311.08,151.76 306.28,152.86 301.47,153.96 296.67,155.05 291.87,156.15 287.06,157.25 282.26,158.34 277.45,159.44 272.65,160.54 267.85,161.63 263.04,162.73 258.24,163.83 253.43,164.92 248.63,166.02 243.82,167.12 239.02,168.21 234.22,169.31 229.41,170.4 224.61,171.5 219.8,172.6 215,173.69 210.19,174.79 205.39,175.89 200.59,176.98 195.78,178.08 190.98,179.18 186.17,180.27 181.37,181.37 181.37,181.37 185.22,184.44 189.08,187.51 192.93,190.59 196.78,193.66 200.63,196.73 204.49,199.8 208.34,202.88 212.19,205.95 216.04,209.02 219.9,212.09 223.75,215.17 227.6,218.24 231.45,221.31 235.31,224.38 239.16,227.46 243.01,230.53 246.86,233.6 250.72,236.67 254.57,239.75 258.42,242.82 262.28,245.89 266.13,248.96 269.98,252.03 273.83,255.11 277.69,258.18 281.54,261.25 285.39,264.32 289.24,267.4 293.1,270.47" stroke="rgb(0,0,0)" fill="rgb(255,255,255)" stroke-width="1.07" stroke-dasharray="none" stroke-linecap="butt" stroke-linejoin="miter" stroke-miterlimit="10" stroke-opacity="1" fill-opacity="0"/>
                  </g>
                  <g id="Southeast" class="wedge">
                    <polygon id="geom_polygon.polygon.16.1.1" points="320.69,149.57 319.51,144.78 318.17,140.03 316.66,135.34 314.99,130.7 313.16,126.11 311.17,121.6 309.03,117.15 306.74,112.78 304.3,108.5 301.71,104.3 298.98,100.19 296.11,96.18 293.1,92.27 289.95,88.47 286.68,84.77 283.29,81.2 279.77,77.74 276.13,74.4 272.38,71.2 268.53,68.12 264.57,65.18 260.51,62.38 256.35,59.72 252.11,57.2 247.78,54.83 243.37,52.62 241.24,57.06 239.1,61.5 236.96,65.94 234.82,70.38 232.68,74.82 230.55,79.26 228.41,83.7 226.27,88.14 224.13,92.58 221.99,97.02 219.85,101.45 217.72,105.89 215.58,110.33 213.44,114.77 211.3,119.21 209.16,123.65 207.03,128.09 204.89,132.53 202.75,136.97 200.61,141.41 198.47,145.85 196.34,150.29 194.2,154.73 192.06,159.17 189.92,163.61 187.78,168.05 185.65,172.49 183.51,176.93 181.37,181.37 181.37,181.37 186.17,180.27 190.98,179.18 195.78,178.08 200.59,176.98 205.39,175.89 210.19,174.79 215,173.69 219.8,172.6 224.61,171.5 229.41,170.4 234.22,169.31 239.02,168.21 243.82,167.12 248.63,166.02 253.43,164.92 258.24,163.83 263.04,162.73 267.85,161.63 272.65,160.54 277.45,159.44 282.26,158.34 287.06,157.25 291.87,156.15 296.67,155.05 301.47,153.96 306.28,152.86 311.08,151.76 315.89,150.67 320.69,149.57" stroke="rgb(0,0,0)" fill="rgb(255,255,255)" stroke-width="1.07" stroke-dasharray="none" stroke-linecap="butt" stroke-linejoin="miter" stroke-miterlimit="10" stroke-opacity="1" fill-opacity="0"/>
                  </g>
                  <g id="South-Central" class="wedge">
                    <polygon id="geom_polygon.polygon.18.1.1" points="243.37,52.62 238.89,50.55 234.34,48.65 229.73,46.9 225.06,45.31 220.34,43.88 215.57,42.62 210.76,41.52 205.91,40.59 201.04,39.83 196.14,39.23 191.23,38.81 186.3,38.55 181.37,38.47 176.44,38.55 171.51,38.81 166.6,39.23 161.7,39.83 156.82,40.59 151.98,41.52 147.17,42.62 142.4,43.88 137.68,45.31 133.01,46.9 128.4,48.65 123.85,50.55 119.37,52.62 121.5,57.06 123.64,61.5 125.78,65.94 127.92,70.38 130.06,74.82 132.19,79.26 134.33,83.7 136.47,88.14 138.61,92.58 140.75,97.02 142.88,101.45 145.02,105.89 147.16,110.33 149.3,114.77 151.44,119.21 153.58,123.65 155.71,128.09 157.85,132.53 159.99,136.97 162.13,141.41 164.27,145.85 166.4,150.29 168.54,154.73 170.68,159.17 172.82,163.61 174.96,168.05 177.09,172.49 179.23,176.93 181.37,181.37 181.37,181.37 183.51,176.93 185.65,172.49 187.78,168.05 189.92,163.61 192.06,159.17 194.2,154.73 196.34,150.29 198.47,145.85 200.61,141.41 202.75,136.97 204.89,132.53 207.03,128.09 209.16,123.65 211.3,119.21 213.44,114.77 215.58,110.33 217.72,105.89 219.85,101.45 221.99,97.02 224.13,92.58 226.27,88.14 228.41,83.7 230.55,79.26 232.68,74.82 234.82,70.38 236.96,65.94 239.1,61.5 241.24,57.06 243.37,52.62" stroke="rgb(0,0,0)" fill="rgb(255,255,255)" stroke-width="1.07" stroke-dasharray="none" stroke-linecap="butt" stroke-linejoin="miter" stroke-miterlimit="10" stroke-opacity="1" fill-opacity="0"/>
                  </g>
                  <g id="Southwest" class="wedge">
                    <polygon id="geom_polygon.polygon.20.1.1" points="119.37,52.62 114.96,54.83 110.63,57.2 106.39,59.72 102.23,62.38 98.17,65.18 94.21,68.12 90.36,71.2 86.61,74.4 82.97,77.74 79.45,81.2 76.06,84.77 72.78,88.47 69.64,92.27 66.63,96.18 63.76,100.19 61.03,104.3 58.44,108.5 56,112.78 53.71,117.15 51.57,121.6 49.58,126.11 47.75,130.7 46.08,135.34 44.57,140.03 43.23,144.78 42.05,149.57 46.85,150.67 51.66,151.76 56.46,152.86 61.27,153.96 66.07,155.05 70.87,156.15 75.68,157.25 80.48,158.34 85.29,159.44 90.09,160.54 94.89,161.63 99.7,162.73 104.5,163.83 109.31,164.92 114.11,166.02 118.92,167.12 123.72,168.21 128.52,169.31 133.33,170.4 138.13,171.5 142.94,172.6 147.74,173.69 152.54,174.79 157.35,175.89 162.15,176.98 166.96,178.08 171.76,179.18 176.57,180.27 181.37,181.37 181.37,181.37 179.23,176.93 177.09,172.49 174.96,168.05 172.82,163.61 170.68,159.17 168.54,154.73 166.4,150.29 164.27,145.85 162.13,141.41 159.99,136.97 157.85,132.53 155.71,128.09 153.58,123.65 151.44,119.21 149.3,114.77 147.16,110.33 145.02,105.89 142.88,101.45 140.75,97.02 138.61,92.58 136.47,88.14 134.33,83.7 132.19,79.26 130.06,74.82 127.92,70.38 125.78,65.94 123.64,61.5 121.5,57.06 119.37,52.62" stroke="rgb(0,0,0)" fill="rgb(255,255,255)" stroke-width="1.07" stroke-dasharray="none" stroke-linecap="butt" stroke-linejoin="miter" stroke-miterlimit="10" stroke-opacity="1" fill-opacity="0"/>
                  </g>
                  <g id="Northwest" class="wedge">
                    <polygon id="geom_polygon.polygon.22.1.1" points="42.05,149.57 41.03,154.4 40.19,159.26 39.51,164.14 39,169.05 38.66,173.97 38.49,178.9 38.49,183.84 38.66,188.77 39,193.69 39.51,198.6 40.19,203.48 41.03,208.34 42.05,213.17 43.23,217.96 44.57,222.71 46.08,227.4 47.75,232.04 49.58,236.63 51.57,241.14 53.71,245.59 56,249.95 58.44,254.24 61.03,258.44 63.76,262.55 66.63,266.56 69.64,270.47 73.5,267.4 77.35,264.32 81.2,261.25 85.05,258.18 88.91,255.11 92.76,252.03 96.61,248.96 100.46,245.89 104.32,242.82 108.17,239.75 112.02,236.67 115.87,233.6 119.73,230.53 123.58,227.46 127.43,224.38 131.29,221.31 135.14,218.24 138.99,215.17 142.84,212.09 146.7,209.02 150.55,205.95 154.4,202.88 158.25,199.8 162.11,196.73 165.96,193.66 169.81,190.59 173.66,187.51 177.52,184.44 181.37,181.37 181.37,181.37 176.57,180.27 171.76,179.18 166.96,178.08 162.15,176.98 157.35,175.89 152.54,174.79 147.74,173.69 142.94,172.6 138.13,171.5 133.33,170.4 128.52,169.31 123.72,168.21 118.92,167.12 114.11,166.02 109.31,164.92 104.5,163.83 99.7,162.73 94.89,161.63 90.09,160.54 85.29,159.44 80.48,158.34 75.68,157.25 70.87,156.15 66.07,155.05 61.27,153.96 56.46,152.86 51.66,151.76 46.85,150.67 42.05,149.57" stroke="rgb(0,0,0)" fill="rgb(255,255,255)" stroke-width="1.07" stroke-dasharray="none" stroke-linecap="butt" stroke-linejoin="miter" stroke-miterlimit="10" stroke-opacity="1" fill-opacity="0"/>
                  </g>
                  <g id="North-Central" class="wedge">
                    <polygon id="geom_polygon.polygon.24.1.1" points="69.64,270.47 72.78,274.27 76.06,277.96 79.45,281.54 82.97,285 86.61,288.34 90.36,291.54 94.21,294.62 98.17,297.56 102.23,300.36 106.39,303.02 110.63,305.54 114.96,307.91 119.37,310.12 123.85,312.19 128.4,314.09 133.01,315.84 137.68,317.43 142.4,318.86 147.17,320.12 151.98,321.22 156.82,322.15 161.7,322.91 166.6,323.51 171.51,323.93 176.44,324.19 181.37,324.27 181.37,319.35 181.37,314.42 181.37,309.49 181.37,304.56 181.37,299.64 181.37,294.71 181.37,289.78 181.37,284.85 181.37,279.92 181.37,275 181.37,270.07 181.37,265.14 181.37,260.21 181.37,255.29 181.37,250.36 181.37,245.43 181.37,240.5 181.37,235.57 181.37,230.65 181.37,225.72 181.37,220.79 181.37,215.86 181.37,210.94 181.37,206.01 181.37,201.08 181.37,196.15 181.37,191.23 181.37,186.3 181.37,181.37 181.37,181.37 177.52,184.44 173.66,187.51 169.81,190.59 165.96,193.66 162.11,196.73 158.25,199.8 154.4,202.88 150.55,205.95 146.7,209.02 142.84,212.09 138.99,215.17 135.14,218.24 131.29,221.31 127.43,224.38 123.58,227.46 119.73,230.53 115.87,233.6 112.02,236.67 108.17,239.75 104.32,242.82 100.46,245.89 96.61,248.96 92.76,252.03 88.91,255.11 85.05,258.18 81.2,261.25 77.35,264.32 73.5,267.4 69.64,270.47" stroke="rgb(0,0,0)" fill="rgb(255,255,255)" stroke-width="1.07" stroke-dasharray="none" stroke-linecap="butt" stroke-linejoin="miter" stroke-miterlimit="10" stroke-opacity="1" fill-opacity="0"/>
                  </g>
                </g>
                <g id="GRID.text.27.1">
                  <g id="GRID.text.27.1.1" transform="translate(181.37, 204.99)" stroke-width="0.1" class="polarAxisText">
                    <g id="GRID.text.27.1.1.scale" transform="scale(1, -1)">
                      <text x="0" y="0" id="GRID.text.27.1.1.text" text-anchor="middle" stroke="rgb(26,26,26)" font-size="8.54" font-family="Source Sans Pro, Helvetica, Arial, FreeSans, Liberation Sans, Nimbus Sans L, sans-serif" fill="rgb(26,26,26)" stroke-opacity="1" fill-opacity="1" font-weight="bold" font-style="normal">
                        <tspan id="GRID.text.27.1.1.tspan.1" dy="2.94" x="0">1920</tspan>
                      </text>
                    </g>
                  </g>
                  <g id="GRID.text.27.1.2" transform="translate(181.37, 228.61)" stroke-width="0.1" class="polarAxisText">
                    <g id="GRID.text.27.1.2.scale" transform="scale(1, -1)">
                      <text x="0" y="0" id="GRID.text.27.1.2.text" text-anchor="middle" stroke="rgb(26,26,26)" font-size="8.54" font-family="Source Sans Pro, Helvetica, Arial, FreeSans, Liberation Sans, Nimbus Sans L, sans-serif" fill="rgb(26,26,26)" stroke-opacity="1" fill-opacity="1" font-weight="bold" font-style="normal">
                        <tspan id="GRID.text.27.1.2.tspan.1" dy="2.94" x="0">1940</tspan>
                      </text>
                    </g>
                  </g>
                  <g id="GRID.text.27.1.3" transform="translate(181.37, 252.23)" stroke-width="0.1" class="polarAxisText">
                    <g id="GRID.text.27.1.3.scale" transform="scale(1, -1)">
                      <text x="0" y="0" id="GRID.text.27.1.3.text" text-anchor="middle" stroke="rgb(26,26,26)" font-size="8.54" font-family="Source Sans Pro, Helvetica, Arial, FreeSans, Liberation Sans, Nimbus Sans L, sans-serif" fill="rgb(26,26,26)" stroke-opacity="1" fill-opacity="1" font-weight="bold" font-style="normal">
                        <tspan id="GRID.text.27.1.3.tspan.1" dy="2.94" x="0">1960</tspan>
                      </text>
                    </g>
                  </g>
                  <g id="GRID.text.27.1.4" transform="translate(181.37, 275.85)" stroke-width="0.1" class="polarAxisText">
                    <g id="GRID.text.27.1.4.scale" transform="scale(1, -1)">
                      <text x="0" y="0" id="GRID.text.27.1.4.text" text-anchor="middle" stroke="rgb(26,26,26)" font-size="8.54" font-family="Source Sans Pro, Helvetica, Arial, FreeSans, Liberation Sans, Nimbus Sans L, sans-serif" fill="rgb(26,26,26)" stroke-opacity="1" fill-opacity="1" font-weight="bold" font-style="normal">
                        <tspan id="GRID.text.27.1.4.tspan.1" dy="2.94" x="0">1980</tspan>
                      </text>
                    </g>
                  </g>
                  <g id="GRID.text.27.1.5" transform="translate(181.37, 299.47)" stroke-width="0.1" class="polarAxisText">
                    <g id="GRID.text.27.1.5.scale" transform="scale(1, -1)">
                      <text x="0" y="0" id="GRID.text.27.1.5.text" text-anchor="middle" stroke="rgb(26,26,26)" font-size="8.54" font-family="Source Sans Pro, Helvetica, Arial, FreeSans, Liberation Sans, Nimbus Sans L, sans-serif" fill="rgb(26,26,26)" stroke-opacity="1" fill-opacity="1" font-weight="bold" font-style="normal">
                        <tspan id="GRID.text.27.1.5.tspan.1" dy="2.94" x="0">2000</tspan>
                      </text>
                    </g>
                  </g>
                  <g id="GRID.text.27.1.6" transform="translate(181.37, 323.09)" stroke-width="0.1" class="polarAxisText">
                    <g id="GRID.text.27.1.6.scale" transform="scale(1, -1)">
                      <text x="0" y="0" id="GRID.text.27.1.6.text" text-anchor="middle" stroke="rgb(26,26,26)" font-size="8.54" font-family="Source Sans Pro, Helvetica, Arial, FreeSans, Liberation Sans, Nimbus Sans L, sans-serif" fill="rgb(26,26,26)" stroke-opacity="1" fill-opacity="1" font-weight="bold" font-style="normal">
                        <tspan id="GRID.text.27.1.6.tspan.1" dy="2.94" x="0">2020</tspan>
                      </text>
                    </g>
                  </g>
                </g>
                <g id="GRID.gTree.28.1"/>
              </g>
            </g>
          </g>
          <g id="layout::spacer.8-6-8-6.1">
            <g id="spacer.8-6-8-6.1"/>
          </g>
          <g id="layout::spacer.8-4-8-4.1">
            <g id="spacer.8-4-8-4.1"/>
          </g>
          <g id="layout::spacer.6-6-6-6.1">
            <g id="spacer.6-6-6-6.1"/>
          </g>
          <g id="layout::spacer.6-4-6-4.1">
            <g id="spacer.6-4-6-4.1"/>
          </g>
          <g id="layout::axis-t.6-5-6-5.1">
            <g id="axis-t.6-5-6-5.1"/>
          </g>
          <g id="layout::axis-l.7-4-7-4.1">
            <g id="axis-l.7-4-7-4.1">
              <g id="layout::axis-l.7-4-7-4::GRID.VP.2.1">
                <g id="GRID.absoluteGrob.40.1">
                  <g id="layout::axis-l.7-4-7-4::GRID.VP.2::axis.1">
                    <g id="axis.1">
                      <g id="layout::axis-l.7-4-7-4::GRID.VP.2::axis::axis.1-1-1-1.1">
                        <g id="axis.1-1-1-1.1"/>
                      </g>
                      <g id="layout::axis-l.7-4-7-4::GRID.VP.2::axis::axis.1-2-1-2.1">
                        <g id="axis.1-2-1-2.1"/>
                      </g>
                    </g>
                  </g>
                </g>
              </g>
            </g>
          </g>
          <g id="layout::axis-r.7-6-7-6.1">
            <g id="axis-r.7-6-7-6.1"/>
          </g>
          <g id="layout::axis-b.8-5-8-5.1">
            <g id="axis-b.8-5-8-5.1">
              <g id="layout::axis-b.8-5-8-5::GRID.VP.1.1">
                <g id="GRID.absoluteGrob.39.1">
                  <g id="layout::axis-b.8-5-8-5::GRID.VP.1::axis.1">
                    <g id="axis.2">
                      <g id="layout::axis-b.8-5-8-5::GRID.VP.1::axis::axis.1-1-1-1.1">
                        <g id="axis.1-1-1-1.2"/>
                      </g>
                      <g id="layout::axis-b.8-5-8-5::GRID.VP.1::axis::axis.2-1-2-1.1">
                        <g id="axis.2-1-2-1.1"/>
                      </g>
                    </g>
                  </g>
                </g>
              </g>
            </g>
          </g>
          <g id="layout::xlab-t.5-5-5-5.1">
            <g id="xlab-t.5-5-5-5.1"/>
          </g>
          <g id="layout::xlab-b.9-5-9-5.1">
            <g id="xlab-b.9-5-9-5.1"/>
          </g>
          <g id="layout::ylab-l.7-3-7-3.1">
            <g id="ylab-l.7-3-7-3.1"/>
          </g>
          <g id="layout::ylab-r.7-7-7-7.1">
            <g id="ylab-r.7-7-7-7.1"/>
          </g>
          <g id="layout::subtitle.4-5-4-5.1">
            <g id="subtitle.4-5-4-5.1"/>
          </g>
          <g id="layout::title.3-5-3-5.1">
            <g id="title.3-5-3-5.1"/>
          </g>
          <g id="layout::caption.10-5-10-5.1">
            <g id="caption.10-5-10-5.1"/>
          </g>
          <g id="layout::tag.2-2-2-2.1">
            <g id="tag.2-2-2-2.1"/>
          </g>
        </g>
      </g>
    </g>
  </g>
</svg>