<?xml version="1.0" encoding="UTF-8"?>
<svg xmlns="http://www.w3.org/2000/svg" xmlns:xlink="http://www.w3.org/1999/xlink" width="360px" height="360px" viewBox="0 0 360 360" version="1.1">
  <metadata xmlns:gridsvg="http://www.stat.auckland.ac.nz/~paul/R/gridSVG/">
    <gridsvg:generator name="gridSVG" version="1.7-5" time="2023-06-15 11:21:05"/>
    <gridsvg:argument name="name" value="src/assets/svgs/polar_wedges.svg"/>
    <gridsvg:argument name="exportCoords" value="none"/>
    <gridsvg:argument name="exportMappings" value="none"/>
    <gridsvg:argument name="exportJS" value="none"/>
    <gridsvg:argument name="res" value="72"/>
    <gridsvg:argument name="prefix" value=""/>
    <gridsvg:argument name="addClasses" value="FALSE"/>
    <gridsvg:argument name="indent" value="TRUE"/>
    <gridsvg:argument name="htmlWrapper" value="FALSE"/>
    <gridsvg:argument name="usePaths" value="vpPaths"/>
    <gridsvg:argument name="uniqueNames" value="TRUE"/>
    <gridsvg:separator name="id.sep" value="."/>
    <gridsvg:separator name="gPath.sep" value="::"/>
    <gridsvg:separator name="vpPath.sep" value="::"/>
  </metadata>
  <g transform="translate(0, 360) scale(1, -1)">
    <g id="gridSVG" fill="none" stroke="rgb(0,0,0)" stroke-dasharray="none" stroke-width="0.75" font-size="12" font-family="Helvetica, Arial, FreeSans, Liberation Sans, Nimbus Sans L, sans-serif" opacity="1" stroke-linecap="round" stroke-linejoin="round" stroke-miterlimit="10" stroke-opacity="1" fill-opacity="0" font-weight="normal" font-style="normal">
      <g id="layout.1">
        <g id="layout.2">
          <defs>
            <clipPath id="layout::panel.7-5-7-5.1.clipPath">
              <rect x="0" y="0" width="360" height="360" fill="none" stroke="none"/>
            </clipPath>
          </defs>
          <g id="layout::panel.7-5-7-5.1" clip-path="url(#layout::panel.7-5-7-5.1.clipPath)">
            <g id="panel.7-5-7-5.1">
              <g id="grill.gTree.34.1"/>
              <g id="geom_rect.gTree.26.1">
                <g id="Southwest" class="wedge">
                  <polygon id="geom_polygon.polygon.12.1.1" points="101.66,59.17 97.54,61.95 93.51,64.87 89.59,67.92 85.77,71.11 82.07,74.42 78.49,77.87 75.02,81.43 71.68,85.11 68.47,88.91 65.39,92.81 62.45,96.82 59.65,100.93 56.99,105.13 54.48,109.42 52.12,113.79 49.91,118.25 47.86,122.77 45.96,127.37 44.23,132.03 42.65,136.74 41.24,141.51 39.99,146.32 38.91,151.17 38,156.06 37.26,160.98 36.69,165.91 41.63,166.4 46.57,166.89 51.52,167.37 56.46,167.86 61.4,168.34 66.34,168.83 71.28,169.31 76.22,169.8 81.17,170.29 86.11,170.77 91.05,171.26 95.99,171.74 100.93,172.23 105.87,172.71 110.82,173.2 115.76,173.69 120.7,174.17 125.64,174.66 130.58,175.14 135.52,175.63 140.47,176.11 145.41,176.6 150.35,177.09 155.29,177.57 160.23,178.06 165.17,178.54 170.12,179.03 175.06,179.51 180,180 180,180 177.3,175.83 174.6,171.67 171.9,167.5 169.19,163.33 166.49,159.17 163.79,155 161.09,150.84 158.39,146.67 155.69,142.5 152.99,138.34 150.29,134.17 147.58,130 144.88,125.84 142.18,121.67 139.48,117.5 136.78,113.34 134.08,109.17 131.38,105 128.67,100.84 125.97,96.67 123.27,92.51 120.57,88.34 117.87,84.17 115.17,80.01 112.47,75.84 109.76,71.67 107.06,67.51 104.36,63.34 101.66,59.17" stroke="rgb(248,118,109)" fill="rgb(255,255,255)" stroke-width="1.07" stroke-dasharray="none" stroke-linecap="butt" stroke-linejoin="miter" stroke-miterlimit="10" stroke-opacity="1" fill-opacity="0"/>
                </g>
                <g id="Northwest" class="wedge">
                  <polygon id="geom_polygon.polygon.14.1.1" points="36.69,165.91 36.29,170.87 36.06,175.83 36,180.81 36.12,185.78 36.4,190.74 36.86,195.69 37.48,200.62 38.28,205.53 39.25,210.4 40.38,215.24 41.68,220.04 43.14,224.79 44.77,229.49 46.56,234.13 48.51,238.7 50.61,243.2 52.87,247.63 55.28,251.98 57.84,256.24 60.54,260.41 63.39,264.49 66.38,268.46 69.5,272.33 72.75,276.09 76.13,279.74 79.64,283.26 83.1,279.7 86.56,276.14 90.02,272.58 93.48,269.02 96.94,265.46 100.4,261.9 103.86,258.34 107.32,254.78 110.78,251.21 114.24,247.65 117.7,244.09 121.17,240.53 124.63,236.97 128.09,233.41 131.55,229.85 135.01,226.29 138.47,222.73 141.93,219.17 145.39,215.61 148.85,212.05 152.31,208.49 155.77,204.93 159.23,201.36 162.7,197.8 166.16,194.24 169.62,190.68 173.08,187.12 176.54,183.56 180,180 180,180 175.06,179.51 170.12,179.03 165.17,178.54 160.23,178.06 155.29,177.57 150.35,177.09 145.41,176.6 140.47,176.11 135.52,175.63 130.58,175.14 125.64,174.66 120.7,174.17 115.76,173.69 110.82,173.2 105.87,172.71 100.93,172.23 95.99,171.74 91.05,171.26 86.11,170.77 81.17,170.29 76.22,169.8 71.28,169.31 66.34,168.83 61.4,168.34 56.46,167.86 51.52,167.37 46.57,166.89 41.63,166.4 36.69,165.91" stroke="rgb(196,154,0)" fill="rgb(255,255,255)" stroke-width="1.07" stroke-dasharray="none" stroke-linecap="butt" stroke-linejoin="miter" stroke-miterlimit="10" stroke-opacity="1" fill-opacity="0"/>
                </g>
                <g id="North-Central" class="wedge">
                  <polygon id="geom_polygon.polygon.16.1.1" points="79.64,283.26 83.26,286.66 87,289.94 90.85,293.08 94.8,296.09 98.86,298.97 103.02,301.69 107.26,304.28 111.6,306.72 116.01,309 120.5,311.13 125.06,313.11 129.69,314.93 134.38,316.58 139.12,318.08 143.91,319.4 148.74,320.57 153.61,321.56 158.51,322.39 163.44,323.04 168.39,323.53 173.35,323.85 178.32,323.99 183.29,323.96 188.26,323.76 193.21,323.39 198.16,322.85 197.53,317.92 196.9,313 196.28,308.07 195.65,303.15 195.03,298.22 194.4,293.3 193.77,288.37 193.15,283.44 192.52,278.52 191.9,273.59 191.27,268.67 190.64,263.74 190.02,258.81 189.39,253.89 188.77,248.96 188.14,244.04 187.51,239.11 186.89,234.18 186.26,229.26 185.63,224.33 185.01,219.41 184.38,214.48 183.76,209.56 183.13,204.63 182.5,199.7 181.88,194.78 181.25,189.85 180.63,184.93 180,180 180,180 176.54,183.56 173.08,187.12 169.62,190.68 166.16,194.24 162.7,197.8 159.23,201.36 155.77,204.93 152.31,208.49 148.85,212.05 145.39,215.61 141.93,219.17 138.47,222.73 135.01,226.29 131.55,229.85 128.09,233.41 124.63,236.97 121.17,240.53 117.7,244.09 114.24,247.65 110.78,251.21 107.32,254.78 103.86,258.34 100.4,261.9 96.94,265.46 93.48,269.02 90.02,272.58 86.56,276.14 83.1,279.7 79.64,283.26" stroke="rgb(83,180,0)" fill="rgb(255,255,255)" stroke-width="1.07" stroke-dasharray="none" stroke-linecap="butt" stroke-linejoin="miter" stroke-miterlimit="10" stroke-opacity="1" fill-opacity="0"/>
                </g>
                <g id="Midwest" class="wedge">
                  <polygon id="geom_polygon.polygon.18.1.1" points="198.16,322.85 203.08,322.14 207.97,321.26 212.83,320.21 217.65,318.99 222.42,317.61 227.15,316.06 231.82,314.35 236.42,312.49 240.96,310.46 245.43,308.28 249.82,305.94 254.12,303.46 258.34,300.83 262.46,298.05 266.49,295.13 270.41,292.08 274.23,288.89 277.93,285.58 281.51,282.13 284.98,278.57 288.32,274.89 291.53,271.09 294.61,267.19 297.55,263.18 300.35,259.07 303.01,254.87 298.76,252.29 294.52,249.71 290.28,247.13 286.04,244.54 281.8,241.96 277.56,239.38 273.31,236.8 269.07,234.22 264.83,231.63 260.59,229.05 256.35,226.47 252.11,223.89 247.87,221.31 243.62,218.73 239.38,216.14 235.14,213.56 230.9,210.98 226.66,208.4 222.42,205.82 218.17,203.24 213.93,200.65 209.69,198.07 205.45,195.49 201.21,192.91 196.97,190.33 192.72,187.75 188.48,185.16 184.24,182.58 180,180 180,180 180.63,184.93 181.25,189.85 181.88,194.78 182.5,199.7 183.13,204.63 183.76,209.56 184.38,214.48 185.01,219.41 185.63,224.33 186.26,229.26 186.89,234.18 187.51,239.11 188.14,244.04 188.77,248.96 189.39,253.89 190.02,258.81 190.64,263.74 191.27,268.67 191.9,273.59 192.52,278.52 193.15,283.44 193.77,288.37 194.4,293.3 195.03,298.22 195.65,303.15 196.28,308.07 196.9,313 197.53,317.92 198.16,322.85" stroke="rgb(0,192,148)" fill="rgb(255,255,255)" stroke-width="1.07" stroke-dasharray="none" stroke-linecap="butt" stroke-linejoin="miter" stroke-miterlimit="10" stroke-opacity="1" fill-opacity="0"/>
                </g>
                <g id="Northeast" class="wedge">
                  <polygon id="geom_polygon.polygon.20.1.1" points="303.01,254.87 305.52,250.58 307.88,246.21 310.09,241.75 312.14,237.23 314.04,232.63 315.77,227.97 317.35,223.26 318.76,218.49 320.01,213.68 321.09,208.83 322,203.94 322.74,199.02 323.31,194.09 323.71,189.13 323.94,184.17 324,179.19 323.88,174.22 323.6,169.26 323.14,164.31 322.52,159.38 321.72,154.47 320.75,149.6 319.62,144.76 318.32,139.96 316.86,135.21 315.23,130.51 310.57,132.22 305.9,133.92 301.24,135.63 296.58,137.34 291.91,139.04 287.25,140.75 282.59,142.46 277.92,144.16 273.26,145.87 268.6,147.58 263.94,149.28 259.27,150.99 254.61,152.7 249.95,154.4 245.28,156.11 240.62,157.82 235.96,159.52 231.29,161.23 226.63,162.93 221.97,164.64 217.3,166.35 212.64,168.05 207.98,169.76 203.32,171.47 198.65,173.17 193.99,174.88 189.33,176.59 184.66,178.29 180,180 180,180 184.24,182.58 188.48,185.16 192.72,187.75 196.97,190.33 201.21,192.91 205.45,195.49 209.69,198.07 213.93,200.65 218.17,203.24 222.42,205.82 226.66,208.4 230.9,210.98 235.14,213.56 239.38,216.14 243.62,218.73 247.87,221.31 252.11,223.89 256.35,226.47 260.59,229.05 264.83,231.63 269.07,234.22 273.31,236.8 277.56,239.38 281.8,241.96 286.04,244.54 290.28,247.13 294.52,249.71 298.76,252.29 303.01,254.87" stroke="rgb(0,182,235)" fill="rgb(255,255,255)" stroke-width="1.07" stroke-dasharray="none" stroke-linecap="butt" stroke-linejoin="miter" stroke-miterlimit="10" stroke-opacity="1" fill-opacity="0"/>
                </g>
                <g id="Southeast" class="wedge">
                  <polygon id="geom_polygon.polygon.22.1.1" points="315.23,130.51 313.44,125.87 311.49,121.3 309.39,116.8 307.13,112.37 304.72,108.02 302.16,103.76 299.46,99.59 296.61,95.51 293.62,91.54 290.5,87.67 287.25,83.91 283.87,80.26 280.36,76.74 276.74,73.34 273,70.06 269.15,66.92 265.2,63.91 261.14,61.03 256.98,58.31 252.74,55.72 248.4,53.28 243.99,51 239.5,48.87 234.94,46.89 230.31,45.07 225.62,43.42 224.05,48.13 222.48,52.84 220.9,57.55 219.33,62.26 217.76,66.97 216.18,71.68 214.61,76.39 213.04,81.1 211.46,85.81 209.89,90.52 208.32,95.23 206.74,99.93 205.17,104.64 203.6,109.35 202.02,114.06 200.45,118.77 198.88,123.48 197.3,128.19 195.73,132.9 194.16,137.61 192.59,142.32 191.01,147.03 189.44,151.74 187.87,156.45 186.29,161.16 184.72,165.87 183.15,170.58 181.57,175.29 180,180 180,180 184.66,178.29 189.33,176.59 193.99,174.88 198.65,173.17 203.32,171.47 207.98,169.76 212.64,168.05 217.3,166.35 221.97,164.64 226.63,162.93 231.29,161.23 235.96,159.52 240.62,157.82 245.28,156.11 249.95,154.4 254.61,152.7 259.27,150.99 263.94,149.28 268.6,147.58 273.26,145.87 277.92,144.16 282.59,142.46 287.25,140.75 291.91,139.04 296.58,137.34 301.24,135.63 305.9,133.92 310.57,132.22 315.23,130.51" stroke="rgb(165,138,255)" fill="rgb(255,255,255)" stroke-width="1.07" stroke-dasharray="none" stroke-linecap="butt" stroke-linejoin="miter" stroke-miterlimit="10" stroke-opacity="1" fill-opacity="0"/>
                </g>
                <g id="South-Central" class="wedge">
                  <polygon id="geom_polygon.polygon.24.1.1" points="225.62,43.42 220.88,41.92 216.09,40.6 211.26,39.43 206.39,38.44 201.49,37.61 196.56,36.96 191.61,36.47 186.65,36.15 181.68,36.01 176.71,36.04 171.74,36.24 166.79,36.61 161.84,37.15 156.92,37.86 152.03,38.74 147.17,39.79 142.35,41.01 137.58,42.39 132.85,43.94 128.18,45.65 123.58,47.51 119.04,49.54 114.57,51.72 110.18,54.06 105.88,56.54 101.66,59.17 104.36,63.34 107.06,67.51 109.76,71.67 112.47,75.84 115.17,80.01 117.87,84.17 120.57,88.34 123.27,92.51 125.97,96.67 128.67,100.84 131.38,105 134.08,109.17 136.78,113.34 139.48,117.5 142.18,121.67 144.88,125.84 147.58,130 150.29,134.17 152.99,138.34 155.69,142.5 158.39,146.67 161.09,150.84 163.79,155 166.49,159.17 169.19,163.33 171.9,167.5 174.6,171.67 177.3,175.83 180,180 180,180 181.57,175.29 183.15,170.58 184.72,165.87 186.29,161.16 187.87,156.45 189.44,151.74 191.01,147.03 192.59,142.32 194.16,137.61 195.73,132.9 197.3,128.19 198.88,123.48 200.45,118.77 202.02,114.06 203.6,109.35 205.17,104.64 206.74,99.93 208.32,95.23 209.89,90.52 211.46,85.81 213.04,81.1 214.61,76.39 216.18,71.68 217.76,66.97 219.33,62.26 220.9,57.55 222.48,52.84 224.05,48.13 225.62,43.42" stroke="rgb(251,97,215)" fill="rgb(255,255,255)" stroke-width="1.07" stroke-dasharray="none" stroke-linecap="butt" stroke-linejoin="miter" stroke-miterlimit="10" stroke-opacity="1" fill-opacity="0"/>
                </g>
              </g>
              <g id="GRID.gTree.27.1"/>
            </g>
          </g>
          <g id="layout::spacer.8-6-8-6.1"/>
          <g id="layout::spacer.8-4-8-4.1"/>
          <g id="layout::spacer.6-6-6-6.1"/>
          <g id="layout::spacer.6-4-6-4.1"/>
          <g id="layout::axis-t.6-5-6-5.1"/>
          <g id="layout::axis-l.7-4-7-4.1">
            <g id="layout::axis-l.7-4-7-4::GRID.VP.2.1">
              <g id="axis-l.7-4-7-4.1">
                <g id="layout::axis-l.7-4-7-4::GRID.VP.2::axis.1">
                  <g id="axis.1">
                    <g id="layout::axis-l.7-4-7-4::GRID.VP.2::axis::axis.1-1-1-1.1"/>
                    <g id="layout::axis-l.7-4-7-4::GRID.VP.2::axis::axis.1-2-1-2.1"/>
                  </g>
                </g>
              </g>
            </g>
          </g>
          <g id="layout::axis-r.7-6-7-6.1"/>
          <g id="layout::axis-b.8-5-8-5.1">
            <g id="layout::axis-b.8-5-8-5::GRID.VP.1.1">
              <g id="axis-b.8-5-8-5.1">
                <g id="layout::axis-b.8-5-8-5::GRID.VP.1::axis.1">
                  <g id="axis.2">
                    <g id="layout::axis-b.8-5-8-5::GRID.VP.1::axis::axis.1-1-1-1.1"/>
                    <g id="layout::axis-b.8-5-8-5::GRID.VP.1::axis::axis.2-1-2-1.1"/>
                  </g>
                </g>
              </g>
            </g>
          </g>
          <g id="layout::xlab-t.5-5-5-5.1"/>
          <g id="layout::xlab-b.9-5-9-5.1"/>
          <g id="layout::ylab-l.7-3-7-3.1"/>
          <g id="layout::ylab-r.7-7-7-7.1"/>
          <g id="layout::subtitle.4-5-4-5.1"/>
          <g id="layout::title.3-5-3-5.1"/>
          <g id="layout::caption.10-5-10-5.1"/>
          <g id="layout::tag.2-2-2-2.1"/>
        </g>
      </g>
    </g>
  </g>
</svg>