<?xml version="1.0" encoding="UTF-8"?>
<svg xmlns="http://www.w3.org/2000/svg" xmlns:xlink="http://www.w3.org/1999/xlink" width="360px" height="360px" viewBox="0 0 360 360" version="1.1">
  <metadata xmlns:gridsvg="http://www.stat.auckland.ac.nz/~paul/R/gridSVG/">
    <gridsvg:generator name="gridSVG" version="1.7-5" time="2023-06-13 06:46:48"/>
    <gridsvg:argument name="name" value="src/assets/svgs/polar_wedges.svg"/>
    <gridsvg:argument name="exportCoords" value="none"/>
    <gridsvg:argument name="exportMappings" value="none"/>
    <gridsvg:argument name="exportJS" value="none"/>
    <gridsvg:argument name="res" value="72"/>
    <gridsvg:argument name="prefix" value=""/>
    <gridsvg:argument name="addClasses" value="FALSE"/>
    <gridsvg:argument name="indent" value="TRUE"/>
    <gridsvg:argument name="htmlWrapper" value="FALSE"/>
    <gridsvg:argument name="usePaths" value="vpPaths"/>
    <gridsvg:argument name="uniqueNames" value="TRUE"/>
    <gridsvg:separator name="id.sep" value="."/>
    <gridsvg:separator name="gPath.sep" value="::"/>
    <gridsvg:separator name="vpPath.sep" value="::"/>
  </metadata>
  <g transform="translate(0, 360) scale(1, -1)">
    <g id="gridSVG" fill="none" stroke="rgb(0,0,0)" stroke-dasharray="none" stroke-width="0.75" font-size="12" font-family="Helvetica, Arial, FreeSans, Liberation Sans, Nimbus Sans L, sans-serif" opacity="1" stroke-linecap="round" stroke-linejoin="round" stroke-miterlimit="10" stroke-opacity="1" fill-opacity="0" font-weight="normal" font-style="normal">
      <g id="layout.1">
        <g id="layout.2">
          <defs>
            <clipPath id="layout::panel.7-5-7-5.1.clipPath">
              <rect x="0" y="0" width="360" height="360" fill="none" stroke="none"/>
            </clipPath>
          </defs>
          <g id="layout::panel.7-5-7-5.1" clip-path="url(#layout::panel.7-5-7-5.1.clipPath)">
            <g id="panel.7-5-7-5.1">
              <g id="panel-1.gTree.36.1">
                <g id="grill.gTree.34.1"/>
                <g id="geom_rect.gTree.26.1">
                  <g id="Southwest" class="wedge">
                    <polygon id="geom_polygon.polygon.12.1.1" points="96.32,62.81 92.26,65.82 88.3,68.97 84.46,72.26 80.73,75.68 77.13,79.23 73.66,82.91 70.31,86.7 67.1,90.61 64.03,94.63 61.11,98.76 58.33,102.98 55.7,107.3 53.22,111.71 50.9,116.2 48.74,120.78 46.74,125.42 44.91,130.14 43.24,134.91 41.74,139.74 40.41,144.62 39.26,149.54 38.27,154.51 37.47,159.5 42.38,160.21 47.3,160.91 52.21,161.62 57.13,162.33 62.04,163.03 66.96,163.74 71.87,164.45 76.79,165.15 81.7,165.86 86.62,166.57 91.53,167.27 96.45,167.98 101.36,168.69 106.28,169.4 111.19,170.1 116.11,170.81 121.02,171.52 125.94,172.22 130.85,172.93 135.77,173.64 140.68,174.34 145.6,175.05 150.51,175.76 155.43,176.47 160.34,177.17 165.26,177.88 170.17,178.59 175.09,179.29 180,180 180,180 177.11,175.96 174.23,171.92 171.34,167.88 168.46,163.84 165.57,159.79 162.69,155.75 159.8,151.71 156.92,147.67 154.03,143.63 151.14,139.59 148.26,135.55 145.37,131.51 142.49,127.47 139.6,123.43 136.72,119.38 133.83,115.34 130.95,111.3 128.06,107.26 125.17,103.22 122.29,99.18 119.4,95.14 116.52,91.1 113.63,87.06 110.75,83.02 107.86,78.97 104.98,74.93 102.09,70.89 99.2,66.85 96.32,62.81" stroke="rgb(248,118,109)" fill="rgb(255,255,255)" stroke-width="1.07" stroke-dasharray="none" stroke-linecap="butt" stroke-linejoin="miter" stroke-miterlimit="10" stroke-opacity="1" fill-opacity="0"/>
                  </g>
                  <g id="Northwest" class="wedge">
                    <polygon id="geom_polygon.polygon.14.1.1" points="36.2,172.36 36.02,177.41 36.02,182.47 36.2,187.52 36.55,192.57 37.08,197.6 37.79,202.61 38.67,207.59 39.72,212.53 40.95,217.44 42.35,222.3 43.92,227.11 45.66,231.86 47.56,236.54 49.63,241.16 51.86,245.7 54.25,250.16 56.79,254.53 59.48,258.81 62.32,262.99 65.31,267.07 68.44,271.05 71.7,274.91 75.1,278.65 78.72,275.25 82.34,271.85 85.95,268.45 89.57,265.05 93.19,261.65 96.81,258.24 100.42,254.84 104.04,251.44 107.66,248.04 111.27,244.64 114.89,241.23 118.51,237.83 122.13,234.43 125.74,231.03 129.36,227.63 132.98,224.22 136.59,220.82 140.21,217.42 143.83,214.02 147.45,210.62 151.06,207.22 154.68,203.81 158.3,200.41 161.91,197.01 165.53,193.61 169.15,190.21 172.77,186.8 176.38,183.4 180,180 180,180 175.04,179.74 170.08,179.47 165.12,179.21 160.17,178.95 155.21,178.68 150.25,178.42 145.29,178.16 140.33,177.89 135.37,177.63 130.41,177.36 125.46,177.1 120.5,176.84 115.54,176.57 110.58,176.31 105.62,176.05 100.66,175.78 95.71,175.52 90.75,175.26 85.79,174.99 80.83,174.73 75.87,174.47 70.91,174.2 65.95,173.94 61,173.68 56.04,173.41 51.08,173.15 46.12,172.88 41.16,172.62 36.2,172.36" stroke="rgb(196,154,0)" fill="rgb(255,255,255)" stroke-width="1.07" stroke-dasharray="none" stroke-linecap="butt" stroke-linejoin="miter" stroke-miterlimit="10" stroke-opacity="1" fill-opacity="0"/>
                  </g>
                  <g id="North Central" class="wedge">
                    <polygon id="geom_polygon.polygon.16.1.1" points="84.37,287.66 88.21,290.95 92.16,294.11 96.22,297.12 100.39,299.99 104.65,302.71 109.01,305.28 113.45,307.7 117.97,309.96 122.58,312.05 127.25,313.99 131.99,315.76 136.78,317.36 141.63,318.79 146.53,320.06 151.47,321.15 156.44,322.06 161.45,322.8 166.47,323.36 171.52,323.75 176.57,323.96 181.63,323.99 186.68,323.84 191.73,323.52 191.32,318.57 190.92,313.62 190.52,308.67 190.11,303.73 189.71,298.78 189.3,293.83 188.9,288.88 188.49,283.93 188.09,278.98 187.68,274.03 187.28,269.08 186.88,264.13 186.47,259.18 186.07,254.24 185.66,249.29 185.26,244.34 184.85,239.39 184.45,234.44 184.04,229.49 183.64,224.54 183.24,219.59 182.83,214.64 182.43,209.69 182.02,204.75 181.62,199.8 181.21,194.85 180.81,189.9 180.4,184.95 180,180 180,180 176.7,183.71 173.4,187.42 170.11,191.14 166.81,194.85 163.51,198.56 160.21,202.27 156.92,205.99 153.62,209.7 150.32,213.41 147.02,217.12 143.73,220.84 140.43,224.55 137.13,228.26 133.83,231.97 130.54,235.69 127.24,239.4 123.94,243.11 120.64,246.82 117.35,250.54 114.05,254.25 110.75,257.96 107.45,261.67 104.15,265.39 100.86,269.1 97.56,272.81 94.26,276.52 90.96,280.24 87.67,283.95 84.37,287.66" stroke="rgb(83,180,0)" fill="rgb(255,255,255)" stroke-width="1.07" stroke-dasharray="none" stroke-linecap="butt" stroke-linejoin="miter" stroke-miterlimit="10" stroke-opacity="1" fill-opacity="0"/>
                  </g>
                  <g id="Midwest" class="wedge">
                    <polygon id="geom_polygon.polygon.18.1.1" points="204.55,321.89 209.51,320.94 214.45,319.82 219.33,318.52 224.17,317.06 228.96,315.42 233.69,313.62 238.34,311.65 242.93,309.52 247.44,307.23 251.87,304.78 256.21,302.18 260.45,299.43 264.59,296.53 268.63,293.49 272.56,290.31 276.38,286.99 280.08,283.54 283.65,279.96 287.1,276.26 290.41,272.44 293.59,268.51 296.63,264.46 299.52,260.31 295.4,257.54 291.28,254.78 287.16,252.01 283.04,249.24 278.92,246.47 274.79,243.7 270.67,240.93 266.55,238.16 262.43,235.39 258.31,232.62 254.19,229.85 250.07,227.08 245.94,224.31 241.82,221.54 237.7,218.77 233.58,216 229.46,213.23 225.34,210.46 221.21,207.69 217.09,204.93 212.97,202.16 208.85,199.39 204.73,196.62 200.61,193.85 196.49,191.08 192.36,188.31 188.24,185.54 184.12,182.77 180,180 180,180 180.85,184.89 181.69,189.79 182.54,194.68 183.39,199.57 184.23,204.46 185.08,209.36 185.93,214.25 186.77,219.14 187.62,224.04 188.46,228.93 189.31,233.82 190.16,238.71 191,243.61 191.85,248.5 192.7,253.39 193.54,258.29 194.39,263.18 195.24,268.07 196.08,272.96 196.93,277.86 197.78,282.75 198.62,287.64 199.47,292.54 200.31,297.43 201.16,302.32 202.01,307.21 202.85,312.11 203.7,317 204.55,321.89" stroke="rgb(0,192,148)" fill="rgb(255,255,255)" stroke-width="1.07" stroke-dasharray="none" stroke-linecap="butt" stroke-linejoin="miter" stroke-miterlimit="10" stroke-opacity="1" fill-opacity="0"/>
                  </g>
                  <g id="Northeast" class="wedge">
                    <polygon id="geom_polygon.polygon.20.1.1" points="306.24,249.28 308.6,244.8 310.79,240.25 312.83,235.62 314.7,230.92 316.4,226.15 317.94,221.34 319.31,216.47 320.5,211.55 321.52,206.6 322.37,201.61 323.04,196.6 323.53,191.57 323.85,186.52 323.99,181.46 323.96,176.41 323.74,171.35 323.35,166.31 322.78,161.29 322.03,156.28 321.11,151.31 320.02,146.37 318.75,141.48 317.31,136.63 312.58,138.12 307.84,139.62 303.11,141.12 298.37,142.61 293.64,144.11 288.9,145.6 284.17,147.1 279.43,148.59 274.7,150.09 269.96,151.58 265.23,153.08 260.49,154.58 255.76,156.07 251.02,157.57 246.29,159.06 241.55,160.56 236.82,162.05 232.08,163.55 227.35,165.04 222.61,166.54 217.88,168.04 213.14,169.53 208.41,171.03 203.67,172.52 198.94,174.02 194.2,175.51 189.47,177.01 184.73,178.5 180,180 180,180 184.35,182.39 188.71,184.78 193.06,187.17 197.41,189.56 201.77,191.94 206.12,194.33 210.47,196.72 214.83,199.11 219.18,201.5 223.53,203.89 227.88,206.28 232.24,208.67 236.59,211.06 240.94,213.44 245.3,215.83 249.65,218.22 254,220.61 258.36,223 262.71,225.39 267.06,227.78 271.42,230.17 275.77,232.55 280.12,234.94 284.48,237.33 288.83,239.72 293.18,242.11 297.53,244.5 301.89,246.89 306.24,249.28" stroke="rgb(0,182,235)" fill="rgb(255,255,255)" stroke-width="1.07" stroke-dasharray="none" stroke-linecap="butt" stroke-linejoin="miter" stroke-miterlimit="10" stroke-opacity="1" fill-opacity="0"/>
                  </g>
                  <g id="Southeast" class="wedge">
                    <polygon id="geom_polygon.polygon.22.1.1" points="312.87,124.49 310.84,119.86 308.65,115.3 306.3,110.83 303.79,106.43 301.13,102.13 298.32,97.93 295.37,93.82 292.27,89.82 289.03,85.94 285.66,82.17 282.16,78.52 278.54,74.99 274.79,71.6 270.92,68.33 266.95,65.21 262.86,62.23 258.67,59.39 254.39,56.7 250.01,54.17 245.55,51.79 241.01,49.56 236.39,47.5 231.7,45.6 229.92,50.24 228.14,54.87 226.36,59.51 224.57,64.14 222.79,68.77 221.01,73.41 219.22,78.04 217.44,82.68 215.66,87.31 213.88,91.95 212.09,96.58 210.31,101.22 208.53,105.85 206.74,110.48 204.96,115.12 203.18,119.75 201.39,124.39 199.61,129.02 197.83,133.66 196.05,138.29 194.26,142.92 192.48,147.56 190.7,152.19 188.91,156.83 187.13,161.46 185.35,166.1 183.57,170.73 181.78,175.37 180,180 180,180 184.58,178.09 189.16,176.17 193.75,174.26 198.33,172.34 202.91,170.43 207.49,168.52 212.07,166.6 216.65,164.69 221.24,162.77 225.82,160.86 230.4,158.95 234.98,157.03 239.56,155.12 244.15,153.2 248.73,151.29 253.31,149.38 257.89,147.46 262.47,145.55 267.05,143.63 271.64,141.72 276.22,139.81 280.8,137.89 285.38,135.98 289.96,134.06 294.55,132.15 299.13,130.24 303.71,128.32 308.29,126.41 312.87,124.49" stroke="rgb(165,138,255)" fill="rgb(255,255,255)" stroke-width="1.07" stroke-dasharray="none" stroke-linecap="butt" stroke-linejoin="miter" stroke-miterlimit="10" stroke-opacity="1" fill-opacity="0"/>
                  </g>
                  <g id="South Central" class="wedge">
                    <polygon id="geom_polygon.polygon.24.1.1" points="219.45,41.51 214.56,40.21 209.63,39.08 204.66,38.13 199.67,37.35 194.65,36.75 189.61,36.32 184.55,36.07 179.5,36 174.44,36.11 169.39,36.39 164.35,36.85 159.34,37.49 154.35,38.3 149.39,39.29 144.46,40.45 139.59,41.79 134.76,43.29 129.98,44.97 125.27,46.8 120.63,48.81 116.06,50.97 111.57,53.3 107.16,55.78 109.67,60.06 112.18,64.35 114.7,68.63 117.21,72.91 119.72,77.2 122.23,81.48 124.74,85.76 127.25,90.05 129.77,94.33 132.28,98.61 134.79,102.9 137.3,107.18 139.81,111.47 142.32,115.75 144.84,120.03 147.35,124.32 149.86,128.6 152.37,132.88 154.88,137.17 157.39,141.45 159.91,145.73 162.42,150.02 164.93,154.3 167.44,158.58 169.95,162.87 172.46,167.15 174.98,171.43 177.49,175.72 180,180 180,180 181.36,175.22 182.72,170.45 184.08,165.67 185.44,160.9 186.8,156.12 188.16,151.35 189.52,146.57 190.88,141.8 192.24,137.02 193.6,132.24 194.96,127.47 196.32,122.69 197.68,117.92 199.04,113.14 200.4,108.37 201.76,103.59 203.13,98.82 204.49,94.04 205.85,89.26 207.21,84.49 208.57,79.71 209.93,74.94 211.29,70.16 212.65,65.39 214.01,60.61 215.37,55.84 216.73,51.06 218.09,46.28 219.45,41.51" stroke="rgb(251,97,215)" fill="rgb(255,255,255)" stroke-width="1.07" stroke-dasharray="none" stroke-linecap="butt" stroke-linejoin="miter" stroke-miterlimit="10" stroke-opacity="1" fill-opacity="0"/>
                  </g>
                </g>
                <g id="GRID.gTree.27.1"/>
              </g>
            </g>
          </g>
          <g id="layout::spacer.8-6-8-6.1">
            <g id="spacer.8-6-8-6.1"/>
          </g>
          <g id="layout::spacer.8-4-8-4.1">
            <g id="spacer.8-4-8-4.1"/>
          </g>
          <g id="layout::spacer.6-6-6-6.1">
            <g id="spacer.6-6-6-6.1"/>
          </g>
          <g id="layout::spacer.6-4-6-4.1">
            <g id="spacer.6-4-6-4.1"/>
          </g>
          <g id="layout::axis-t.6-5-6-5.1">
            <g id="axis-t.6-5-6-5.1"/>
          </g>
          <g id="layout::axis-l.7-4-7-4.1">
            <g id="axis-l.7-4-7-4.1">
              <g id="layout::axis-l.7-4-7-4::GRID.VP.2.1">
                <g id="GRID.absoluteGrob.38.1">
                  <g id="layout::axis-l.7-4-7-4::GRID.VP.2::axis.1">
                    <g id="axis.1">
                      <g id="layout::axis-l.7-4-7-4::GRID.VP.2::axis::axis.1-1-1-1.1">
                        <g id="axis.1-1-1-1.1"/>
                      </g>
                      <g id="layout::axis-l.7-4-7-4::GRID.VP.2::axis::axis.1-2-1-2.1">
                        <g id="axis.1-2-1-2.1"/>
                      </g>
                    </g>
                  </g>
                </g>
              </g>
            </g>
          </g>
          <g id="layout::axis-r.7-6-7-6.1">
            <g id="axis-r.7-6-7-6.1"/>
          </g>
          <g id="layout::axis-b.8-5-8-5.1">
            <g id="axis-b.8-5-8-5.1">
              <g id="layout::axis-b.8-5-8-5::GRID.VP.1.1">
                <g id="GRID.absoluteGrob.37.1">
                  <g id="layout::axis-b.8-5-8-5::GRID.VP.1::axis.1">
                    <g id="axis.2">
                      <g id="layout::axis-b.8-5-8-5::GRID.VP.1::axis::axis.1-1-1-1.1">
                        <g id="axis.1-1-1-1.2"/>
                      </g>
                      <g id="layout::axis-b.8-5-8-5::GRID.VP.1::axis::axis.2-1-2-1.1">
                        <g id="axis.2-1-2-1.1"/>
                      </g>
                    </g>
                  </g>
                </g>
              </g>
            </g>
          </g>
          <g id="layout::xlab-t.5-5-5-5.1">
            <g id="xlab-t.5-5-5-5.1"/>
          </g>
          <g id="layout::xlab-b.9-5-9-5.1">
            <g id="xlab-b.9-5-9-5.1"/>
          </g>
          <g id="layout::ylab-l.7-3-7-3.1">
            <g id="ylab-l.7-3-7-3.1"/>
          </g>
          <g id="layout::ylab-r.7-7-7-7.1">
            <g id="ylab-r.7-7-7-7.1"/>
          </g>
          <g id="layout::subtitle.4-5-4-5.1">
            <g id="subtitle.4-5-4-5.1"/>
          </g>
          <g id="layout::title.3-5-3-5.1">
            <g id="title.3-5-3-5.1"/>
          </g>
          <g id="layout::caption.10-5-10-5.1">
            <g id="caption.10-5-10-5.1"/>
          </g>
          <g id="layout::tag.2-2-2-2.1">
            <g id="tag.2-2-2-2.1"/>
          </g>
        </g>
      </g>
    </g>
  </g>
</svg>